STARTFONT 2.1
COMMENT
COMMENT Converted from OpenType font "LeagueSpartan-Bold.otf" by "otf2bdf 3.0".
COMMENT
FONT -FreeType-League Spartan-Bold-R-Normal--22-160-100-100-P-111-ISO10646-1
SIZE 16 100 100
FONTBOUNDINGBOX 30 32 -3 -7
STARTPROPERTIES 19
FOUNDRY "FreeType"
FAMILY_NAME "League Spartan"
WEIGHT_NAME "Bold"
SLANT "R"
SETWIDTH_NAME "Normal"
ADD_STYLE_NAME ""
PIXEL_SIZE 22
POINT_SIZE 160
RESOLUTION_X 100
RESOLUTION_Y 100
SPACING "P"
AVERAGE_WIDTH 111
CHARSET_REGISTRY "ISO10646"
CHARSET_ENCODING "1"
FONT_ASCENT 15
FONT_DESCENT 4
COPYRIGHT "OFL"
_OTF_FONTFILE "LeagueSpartan-Bold.otf"
_OTF_PSNAME "LeagueSpartan-Bold"
ENDPROPERTIES
CHARS 561
STARTCHAR 000D
ENCODING 13
SWIDTH 585 0
DWIDTH 13 0
BBX 0 0 0 0
BITMAP
ENDCHAR
STARTCHAR 0020
ENCODING 32
SWIDTH 270 0
DWIDTH 6 0
BBX 0 0 0 0
BITMAP
ENDCHAR
STARTCHAR 0021
ENCODING 33
SWIDTH 315 0
DWIDTH 7 0
BBX 4 16 1 0
BITMAP
F0
70
70
70
70
70
70
70
60
60
60
00
70
F0
F0
70
ENDCHAR
STARTCHAR 0022
ENCODING 34
SWIDTH 405 0
DWIDTH 9 0
BBX 7 6 1 9
BITMAP
EC
EE
EE
CC
CC
44
ENDCHAR
STARTCHAR 0023
ENCODING 35
SWIDTH 675 0
DWIDTH 15 0
BBX 12 15 1 0
BITMAP
0660
0E60
0C60
0CE0
3FF0
7FF0
18C0
19C0
3980
7FE0
FFE0
3380
7300
6300
6300
ENDCHAR
STARTCHAR 0024
ENCODING 36
SWIDTH 540 0
DWIDTH 12 0
BBX 11 19 0 -2
BITMAP
0600
0600
0F80
3FE0
3FC0
7840
7800
3C00
3F00
1FC0
03E0
01E0
00E0
70E0
7FE0
FFC0
1F80
0600
0600
ENDCHAR
STARTCHAR 0025
ENCODING 37
SWIDTH 810 0
DWIDTH 18 0
BBX 16 15 1 0
BITMAP
7818
FE38
C630
C660
C660
FEC0
3980
0180
033C
077E
06E7
0CE3
0CE7
187E
383C
ENDCHAR
STARTCHAR 0026
ENCODING 38
SWIDTH 675 0
DWIDTH 15 0
BBX 15 15 0 0
BITMAP
07C0
1FE0
1FE0
3CE0
1CE0
1CE0
1FC0
1F80
3F88
7BDC
F0FC
F0F8
7FF8
7FFC
1F1E
ENDCHAR
STARTCHAR 0027
ENCODING 39
SWIDTH 225 0
DWIDTH 5 0
BBX 3 6 1 9
BITMAP
E0
E0
E0
E0
C0
40
ENDCHAR
STARTCHAR 0028
ENCODING 40
SWIDTH 315 0
DWIDTH 7 0
BBX 5 21 1 -5
BITMAP
10
38
30
70
70
60
E0
E0
E0
E0
E0
E0
E0
E0
E0
60
60
70
30
38
10
ENDCHAR
STARTCHAR 0029
ENCODING 41
SWIDTH 315 0
DWIDTH 7 0
BBX 5 21 1 -5
BITMAP
40
E0
60
70
70
30
38
38
38
38
38
38
38
38
38
30
70
70
60
E0
40
ENDCHAR
STARTCHAR 002A
ENCODING 42
SWIDTH 405 0
DWIDTH 9 0
BBX 7 6 1 10
BITMAP
10
10
FE
38
38
6C
ENDCHAR
STARTCHAR 002B
ENCODING 43
SWIDTH 540 0
DWIDTH 12 0
BBX 9 9 1 3
BITMAP
1C00
1C00
1C00
FF80
FF80
FF80
1C00
1C00
1C00
ENDCHAR
STARTCHAR 002C
ENCODING 44
SWIDTH 270 0
DWIDTH 6 0
BBX 4 7 1 -3
BITMAP
60
F0
F0
70
30
60
40
ENDCHAR
STARTCHAR 002D
ENCODING 45
SWIDTH 360 0
DWIDTH 8 0
BBX 6 3 1 4
BITMAP
FC
FC
FC
ENDCHAR
STARTCHAR 002E
ENCODING 46
SWIDTH 315 0
DWIDTH 7 0
BBX 4 4 1 0
BITMAP
70
F0
F0
70
ENDCHAR
STARTCHAR 002F
ENCODING 47
SWIDTH 495 0
DWIDTH 11 0
BBX 9 17 1 -1
BITMAP
0380
0380
0300
0700
0600
0E00
0E00
0C00
1C00
1800
3800
3000
7000
7000
6000
E000
C000
ENDCHAR
STARTCHAR 0030
ENCODING 48
SWIDTH 585 0
DWIDTH 13 0
BBX 12 15 0 0
BITMAP
0F80
1FC0
3FE0
78F0
7070
7070
7070
F070
7070
7070
7070
78F0
3FE0
1FC0
0F80
ENDCHAR
STARTCHAR 0031
ENCODING 49
SWIDTH 315 0
DWIDTH 7 0
BBX 6 15 0 0
BITMAP
1C
3C
FC
FC
DC
1C
1C
1C
1C
1C
1C
1C
1C
1C
1C
ENDCHAR
STARTCHAR 0032
ENCODING 50
SWIDTH 585 0
DWIDTH 13 0
BBX 11 15 0 0
BITMAP
0F80
3FC0
7FE0
F0E0
70E0
00E0
01E0
01E0
03C0
0780
1F00
3E00
7FE0
7FE0
7FE0
ENDCHAR
STARTCHAR 0033
ENCODING 51
SWIDTH 540 0
DWIDTH 12 0
BBX 11 15 0 0
BITMAP
1F00
3FC0
7FC0
71E0
00E0
01C0
07C0
07C0
01E0
00E0
20E0
F1E0
7FE0
3FC0
1F00
ENDCHAR
STARTCHAR 0034
ENCODING 52
SWIDTH 540 0
DWIDTH 12 0
BBX 11 15 0 0
BITMAP
0780
0780
0F80
0F80
1F80
3B80
3B80
7380
7380
FFE0
FFE0
FFE0
0380
0380
0380
ENDCHAR
STARTCHAR 0035
ENCODING 53
SWIDTH 540 0
DWIDTH 12 0
BBX 10 15 1 0
BITMAP
7F80
7F80
7F80
7000
F000
EF00
FF80
FFC0
23C0
01C0
01C0
E3C0
FF80
7F80
3E00
ENDCHAR
STARTCHAR 0036
ENCODING 54
SWIDTH 540 0
DWIDTH 12 0
BBX 10 15 1 0
BITMAP
0780
0F00
1E00
1C00
3C00
7E00
7F80
FFC0
F1C0
E1C0
E1C0
E1C0
FFC0
7F80
1E00
ENDCHAR
STARTCHAR 0037
ENCODING 55
SWIDTH 540 0
DWIDTH 12 0
BBX 11 15 1 0
BITMAP
FFE0
FFE0
FFC0
03C0
0380
0780
0700
0F00
0E00
1E00
1C00
3800
7800
7000
F000
ENDCHAR
STARTCHAR 0038
ENCODING 56
SWIDTH 540 0
DWIDTH 12 0
BBX 10 15 1 0
BITMAP
1E00
7F80
7F80
F1C0
E1C0
7380
3F80
7F80
FFC0
E1C0
E1C0
F1C0
FFC0
7F80
1F00
ENDCHAR
STARTCHAR 0039
ENCODING 57
SWIDTH 540 0
DWIDTH 12 0
BBX 10 15 1 0
BITMAP
1E00
7F80
FFC0
E1C0
E1C0
E1C0
E1C0
FFC0
7FC0
3F80
0700
0F00
1E00
3C00
7800
ENDCHAR
STARTCHAR 003A
ENCODING 58
SWIDTH 270 0
DWIDTH 6 0
BBX 4 10 1 0
BITMAP
60
F0
F0
60
00
00
60
F0
F0
70
ENDCHAR
STARTCHAR 003B
ENCODING 59
SWIDTH 270 0
DWIDTH 6 0
BBX 4 13 1 -3
BITMAP
60
F0
F0
60
00
00
60
F0
F0
F0
20
60
C0
ENDCHAR
STARTCHAR 003C
ENCODING 60
SWIDTH 540 0
DWIDTH 12 0
BBX 10 11 1 2
BITMAP
0040
01C0
0FC0
3F80
FC00
F000
FC00
7F00
0FC0
03C0
00C0
ENDCHAR
STARTCHAR 003D
ENCODING 61
SWIDTH 540 0
DWIDTH 12 0
BBX 9 7 1 4
BITMAP
FF80
FF80
FF80
0000
FF80
FF80
FF80
ENDCHAR
STARTCHAR 003E
ENCODING 62
SWIDTH 540 0
DWIDTH 12 0
BBX 10 11 1 2
BITMAP
8000
E000
F800
7F00
1FC0
03C0
0FC0
3F00
FC00
F000
8000
ENDCHAR
STARTCHAR 003F
ENCODING 63
SWIDTH 495 0
DWIDTH 11 0
BBX 10 15 0 0
BITMAP
1F00
7F80
FFC0
63C0
03C0
0380
0F00
0E00
1C00
1C00
0000
0C00
1E00
1E00
0C00
ENDCHAR
STARTCHAR 0040
ENCODING 64
SWIDTH 765 0
DWIDTH 17 0
BBX 15 15 1 0
BITMAP
07E0
1FF0
7C7C
701C
E76E
CFE6
DCE6
DC66
DC66
CFFE
E7BC
7020
7EF0
1FF0
0FC0
ENDCHAR
STARTCHAR 0041
ENCODING 65
SWIDTH 675 0
DWIDTH 15 0
BBX 15 15 0 0
BITMAP
0780
07C0
07C0
0FC0
0FE0
0EE0
1CE0
1C70
3C70
3FF8
3FF8
7FF8
703C
F01C
F01E
ENDCHAR
STARTCHAR 0042
ENCODING 66
SWIDTH 540 0
DWIDTH 12 0
BBX 10 15 1 0
BITMAP
FF00
FF80
FFC0
E3C0
E3C0
E380
FF00
FF80
FFC0
E1C0
E1C0
E1C0
FFC0
FF80
FF00
ENDCHAR
STARTCHAR 0043
ENCODING 67
SWIDTH 630 0
DWIDTH 14 0
BBX 12 15 1 0
BITMAP
07E0
1FF0
3FF0
7C60
F000
F000
E000
E000
E000
F000
F000
7C60
3FF0
1FF0
07E0
ENDCHAR
STARTCHAR 0044
ENCODING 68
SWIDTH 585 0
DWIDTH 13 0
BBX 11 15 1 0
BITMAP
FE00
FF80
FFC0
E3C0
E1E0
E0E0
E0E0
E0E0
E0E0
E0E0
E1E0
E3C0
FFC0
FF80
FE00
ENDCHAR
STARTCHAR 0045
ENCODING 69
SWIDTH 540 0
DWIDTH 12 0
BBX 9 15 1 0
BITMAP
FF80
FF80
FF80
E000
E000
E000
FF80
FF80
FF80
E000
E000
E000
FF80
FF80
FF80
ENDCHAR
STARTCHAR 0046
ENCODING 70
SWIDTH 495 0
DWIDTH 11 0
BBX 8 15 1 0
BITMAP
FF
FF
FF
E0
E0
E0
FF
FF
FF
E0
E0
E0
E0
E0
E0
ENDCHAR
STARTCHAR 0047
ENCODING 71
SWIDTH 720 0
DWIDTH 16 0
BBX 15 15 0 0
BITMAP
07E0
1FF8
3FFC
7C3C
7810
7000
F000
F0FE
70FE
700E
781E
3C3C
3FFC
1FF8
07E0
ENDCHAR
STARTCHAR 0048
ENCODING 72
SWIDTH 630 0
DWIDTH 14 0
BBX 12 15 1 0
BITMAP
E0F0
E0F0
E0F0
E0F0
E0F0
E0F0
FFF0
FFF0
FFF0
E0F0
E0F0
E0F0
E0F0
E0F0
E0F0
ENDCHAR
STARTCHAR 0049
ENCODING 73
SWIDTH 270 0
DWIDTH 6 0
BBX 3 15 1 0
BITMAP
E0
E0
E0
E0
E0
E0
E0
E0
E0
E0
E0
E0
E0
E0
E0
ENDCHAR
STARTCHAR 004A
ENCODING 74
SWIDTH 405 0
DWIDTH 9 0
BBX 8 15 0 0
BITMAP
0F
0F
0F
0F
0F
0F
0F
0F
0F
0F
0F
4F
FE
FE
78
ENDCHAR
STARTCHAR 004B
ENCODING 75
SWIDTH 585 0
DWIDTH 13 0
BBX 11 15 1 0
BITMAP
E1E0
E3C0
E780
E700
EF00
FE00
FC00
FC00
FE00
EE00
EF00
E780
E3C0
E3C0
E1E0
ENDCHAR
STARTCHAR 004C
ENCODING 76
SWIDTH 495 0
DWIDTH 11 0
BBX 9 15 1 0
BITMAP
E000
E000
E000
E000
E000
E000
E000
E000
E000
E000
E000
E000
FF80
FF80
FF80
ENDCHAR
STARTCHAR 004D
ENCODING 77
SWIDTH 810 0
DWIDTH 18 0
BBX 15 15 1 0
BITMAP
F81E
F83E
F83E
FC3E
FC3E
FC7E
EC7E
EE6E
EEEE
E6EE
E7CE
E7CE
E3CE
E38E
E00E
ENDCHAR
STARTCHAR 004E
ENCODING 78
SWIDTH 720 0
DWIDTH 16 0
BBX 13 15 1 0
BITMAP
F838
F838
FC38
FC38
EE38
EE38
E738
E738
E3B8
E3B8
E1F8
E1F8
E0F8
E0F8
E078
ENDCHAR
STARTCHAR 004F
ENCODING 79
SWIDTH 720 0
DWIDTH 16 0
BBX 15 15 0 0
BITMAP
07E0
1FF8
3FFC
3C3C
781E
700E
700E
F00E
700E
700E
781E
3C3C
3FFC
1FF8
07E0
ENDCHAR
STARTCHAR 0050
ENCODING 80
SWIDTH 540 0
DWIDTH 12 0
BBX 10 15 1 0
BITMAP
FF00
FF80
FFC0
E3C0
E1C0
E1C0
E3C0
FFC0
FF80
FC00
E000
E000
E000
E000
E000
ENDCHAR
STARTCHAR 0051
ENCODING 81
SWIDTH 720 0
DWIDTH 16 0
BBX 15 19 0 -4
BITMAP
07E0
1FF8
3FFC
3C3C
781E
700E
700E
F00E
F00E
700E
781E
7C3E
3FFC
1FF8
07E0
0FE6
1FFE
08FE
003C
ENDCHAR
STARTCHAR 0052
ENCODING 82
SWIDTH 585 0
DWIDTH 13 0
BBX 11 15 1 0
BITMAP
FF00
FF80
FFC0
E1C0
E1C0
E1C0
E3C0
FF80
FF00
EF00
E700
E780
E380
E3C0
E1E0
ENDCHAR
STARTCHAR 0053
ENCODING 83
SWIDTH 540 0
DWIDTH 12 0
BBX 11 15 0 0
BITMAP
0F80
3FE0
3FC0
7840
7800
3C00
3F00
1FC0
03E0
01E0
00E0
70E0
7FE0
FFC0
1F80
ENDCHAR
STARTCHAR 0054
ENCODING 84
SWIDTH 495 0
DWIDTH 11 0
BBX 10 15 0 0
BITMAP
FFC0
FFC0
FFC0
0E00
0E00
0E00
0E00
0E00
0E00
0E00
0E00
0E00
0E00
0E00
0E00
ENDCHAR
STARTCHAR 0055
ENCODING 85
SWIDTH 630 0
DWIDTH 14 0
BBX 12 15 1 0
BITMAP
E0F0
E0F0
E0F0
E0F0
E0F0
E0F0
E0F0
E0F0
E0F0
E0F0
E0F0
F1E0
7FE0
3FC0
1F00
ENDCHAR
STARTCHAR 0056
ENCODING 86
SWIDTH 675 0
DWIDTH 15 0
BBX 14 15 0 0
BITMAP
F03C
703C
7838
7878
3878
3870
3CF0
1CF0
1CE0
1EE0
0FE0
0FC0
0FC0
07C0
0780
ENDCHAR
STARTCHAR 0057
ENCODING 87
SWIDTH 900 0
DWIDTH 20 0
BBX 19 15 0 0
BITMAP
F0E1E0
70E1E0
70F1E0
78F1C0
79F1C0
79F1C0
39FBC0
39BBC0
3BBB80
3F9B80
1F9F80
1F1F80
1F1F00
1F0F00
1F0F00
ENDCHAR
STARTCHAR 0058
ENCODING 88
SWIDTH 720 0
DWIDTH 16 0
BBX 15 15 0 0
BITMAP
783C
3C78
3C70
1EF0
0FE0
0FC0
07C0
07C0
0FE0
0FE0
1EF0
3CF8
3C78
783C
F03E
ENDCHAR
STARTCHAR 0059
ENCODING 89
SWIDTH 585 0
DWIDTH 13 0
BBX 13 15 0 0
BITMAP
F078
F0F0
78F0
79E0
3DE0
1FC0
1FC0
0F80
0F80
0700
0700
0700
0700
0700
0700
ENDCHAR
STARTCHAR 005A
ENCODING 90
SWIDTH 630 0
DWIDTH 14 0
BBX 13 15 0 0
BITMAP
7FF8
7FF0
7FF0
01E0
03C0
03C0
0780
0780
0F00
1E00
1E00
3C00
3FF8
7FF8
FFF8
ENDCHAR
STARTCHAR 005B
ENCODING 91
SWIDTH 360 0
DWIDTH 8 0
BBX 6 21 1 -5
BITMAP
FC
FC
E0
E0
E0
E0
E0
E0
E0
E0
E0
E0
E0
E0
E0
E0
E0
E0
E0
FC
FC
ENDCHAR
STARTCHAR 005C
ENCODING 92
SWIDTH 495 0
DWIDTH 11 0
BBX 9 16 1 0
BITMAP
C000
E000
6000
7000
7000
3800
3800
1800
1C00
0C00
0E00
0600
0700
0300
0380
0380
ENDCHAR
STARTCHAR 005D
ENCODING 93
SWIDTH 360 0
DWIDTH 8 0
BBX 6 21 1 -5
BITMAP
FC
FC
1C
1C
1C
1C
1C
1C
1C
1C
1C
1C
1C
1C
1C
1C
1C
1C
1C
FC
FC
ENDCHAR
STARTCHAR 005E
ENCODING 94
SWIDTH 405 0
DWIDTH 9 0
BBX 8 4 1 11
BITMAP
38
7C
6E
C7
ENDCHAR
STARTCHAR 005F
ENCODING 95
SWIDTH 405 0
DWIDTH 9 0
BBX 9 2 0 -2
BITMAP
FF80
FF80
ENDCHAR
STARTCHAR 0060
ENCODING 96
SWIDTH 315 0
DWIDTH 7 0
BBX 5 4 1 11
BITMAP
40
E0
70
18
ENDCHAR
STARTCHAR 0061
ENCODING 97
SWIDTH 585 0
DWIDTH 13 0
BBX 11 9 0 0
BITMAP
1EE0
3FE0
7FE0
70E0
F0E0
70E0
7FE0
3FE0
1EE0
ENDCHAR
STARTCHAR 0062
ENCODING 98
SWIDTH 540 0
DWIDTH 12 0
BBX 11 16 1 0
BITMAP
E000
E000
E000
E000
E000
E000
E000
EF00
FFC0
FFC0
F1E0
E1E0
F1E0
FFC0
FFC0
EF00
ENDCHAR
STARTCHAR 0063
ENCODING 99
SWIDTH 405 0
DWIDTH 9 0
BBX 8 9 1 0
BITMAP
3E
7F
FE
E0
E0
E0
FE
7F
3E
ENDCHAR
STARTCHAR 0064
ENCODING 100
SWIDTH 540 0
DWIDTH 12 0
BBX 11 16 0 0
BITMAP
00E0
00E0
00E0
00E0
00E0
00E0
00E0
1EE0
3FE0
7FE0
70E0
F0E0
70E0
7FE0
3FE0
1EE0
ENDCHAR
STARTCHAR 0065
ENCODING 101
SWIDTH 495 0
DWIDTH 11 0
BBX 10 9 0 0
BITMAP
1F00
3F80
71C0
7FC0
FFC0
7000
7980
3FC0
1F80
ENDCHAR
STARTCHAR 0066
ENCODING 102
SWIDTH 360 0
DWIDTH 8 0
BBX 8 16 0 0
BITMAP
0F
1F
3E
38
38
38
38
FE
FE
FE
38
38
38
38
38
38
ENDCHAR
STARTCHAR 0067
ENCODING 103
SWIDTH 585 0
DWIDTH 13 0
BBX 11 14 0 -5
BITMAP
1EE0
3FE0
7FE0
70E0
F0E0
70E0
7FE0
3FE0
1EE0
00E0
20E0
7FE0
7FC0
1F00
ENDCHAR
STARTCHAR 0068
ENCODING 104
SWIDTH 540 0
DWIDTH 12 0
BBX 10 16 1 0
BITMAP
E000
E000
E000
E000
E000
E000
E000
EF00
FFC0
FBC0
E1C0
E1C0
E1C0
E1C0
E1C0
E1C0
ENDCHAR
STARTCHAR 0069
ENCODING 105
SWIDTH 270 0
DWIDTH 6 0
BBX 4 15 1 0
BITMAP
E0
F0
F0
60
00
00
E0
E0
E0
E0
E0
E0
E0
E0
E0
ENDCHAR
STARTCHAR 006A
ENCODING 106
SWIDTH 270 0
DWIDTH 6 0
BBX 6 20 -1 -5
BITMAP
18
3C
3C
18
00
00
3C
3C
3C
3C
3C
3C
3C
3C
3C
3C
3C
F8
F8
F0
ENDCHAR
STARTCHAR 006B
ENCODING 107
SWIDTH 495 0
DWIDTH 11 0
BBX 10 16 1 0
BITMAP
E000
E000
E000
E000
E000
E000
E000
E380
E700
EE00
FC00
FC00
FE00
EF00
E780
E3C0
ENDCHAR
STARTCHAR 006C
ENCODING 108
SWIDTH 270 0
DWIDTH 6 0
BBX 3 16 1 0
BITMAP
E0
E0
E0
E0
E0
E0
E0
E0
E0
E0
E0
E0
E0
E0
E0
E0
ENDCHAR
STARTCHAR 006D
ENCODING 109
SWIDTH 810 0
DWIDTH 18 0
BBX 16 9 1 0
BITMAP
EF3C
FFFE
F3EF
E3C7
E387
E387
E387
E387
E387
ENDCHAR
STARTCHAR 006E
ENCODING 110
SWIDTH 540 0
DWIDTH 12 0
BBX 10 9 1 0
BITMAP
EF00
FF80
F3C0
E1C0
E1C0
E1C0
E1C0
E1C0
E1C0
ENDCHAR
STARTCHAR 006F
ENCODING 111
SWIDTH 495 0
DWIDTH 11 0
BBX 11 9 0 0
BITMAP
1F00
3F80
7FC0
71E0
F1E0
71E0
7FC0
3F80
1F00
ENDCHAR
STARTCHAR 0070
ENCODING 112
SWIDTH 585 0
DWIDTH 13 0
BBX 11 14 1 -5
BITMAP
EF80
FFC0
FFC0
F1E0
E0E0
F1E0
FFC0
FFC0
EF00
E000
E000
E000
E000
E000
ENDCHAR
STARTCHAR 0071
ENCODING 113
SWIDTH 585 0
DWIDTH 13 0
BBX 11 14 1 -5
BITMAP
3DE0
7FE0
FFE0
E1E0
E1E0
E1E0
FFE0
7FE0
3DE0
01E0
01E0
01E0
01E0
01E0
ENDCHAR
STARTCHAR 0072
ENCODING 114
SWIDTH 405 0
DWIDTH 9 0
BBX 8 9 1 0
BITMAP
EF
FE
FE
E0
E0
E0
E0
E0
E0
ENDCHAR
STARTCHAR 0073
ENCODING 115
SWIDTH 450 0
DWIDTH 10 0
BBX 8 9 1 0
BITMAP
7E
FE
E2
F8
7E
0F
CF
FE
FC
ENDCHAR
STARTCHAR 0074
ENCODING 116
SWIDTH 360 0
DWIDTH 8 0
BBX 7 13 0 0
BITMAP
38
38
38
38
FE
FE
FE
38
38
38
3E
3E
1E
ENDCHAR
STARTCHAR 0075
ENCODING 117
SWIDTH 540 0
DWIDTH 12 0
BBX 10 9 1 0
BITMAP
E1C0
E1C0
E1C0
E1C0
E1C0
E3C0
FFC0
7F80
3E00
ENDCHAR
STARTCHAR 0076
ENCODING 118
SWIDTH 540 0
DWIDTH 12 0
BBX 11 9 0 0
BITMAP
F0E0
70E0
79E0
39C0
3BC0
3F80
1F80
1F00
0F00
ENDCHAR
STARTCHAR 0077
ENCODING 119
SWIDTH 720 0
DWIDTH 16 0
BBX 16 9 0 0
BITMAP
E18F
F3CF
73CE
73CE
77FE
3E7C
3E7C
3C7C
1C38
ENDCHAR
STARTCHAR 0078
ENCODING 120
SWIDTH 540 0
DWIDTH 12 0
BBX 10 9 1 0
BITMAP
F3C0
7380
3F00
3E00
1E00
3F00
7F80
F380
E1C0
ENDCHAR
STARTCHAR 0079
ENCODING 121
SWIDTH 495 0
DWIDTH 11 0
BBX 11 14 0 -5
BITMAP
E0E0
71E0
71C0
79C0
3B80
3B80
1F00
1F00
1E00
0E00
1E00
1C00
3C00
3800
ENDCHAR
STARTCHAR 007A
ENCODING 122
SWIDTH 450 0
DWIDTH 10 0
BBX 9 9 0 0
BITMAP
7F80
7F80
0F00
0E00
1E00
3C00
3800
7F80
FF80
ENDCHAR
STARTCHAR 007B
ENCODING 123
SWIDTH 360 0
DWIDTH 8 0
BBX 6 21 1 -5
BITMAP
3C
3C
70
70
70
70
70
70
70
F0
E0
70
70
70
70
70
70
70
70
3C
3C
ENDCHAR
STARTCHAR 007C
ENCODING 124
SWIDTH 225 0
DWIDTH 5 0
BBX 3 19 1 -3
BITMAP
E0
E0
E0
E0
E0
E0
E0
E0
E0
E0
E0
E0
E0
E0
E0
E0
E0
E0
E0
ENDCHAR
STARTCHAR 007D
ENCODING 125
SWIDTH 360 0
DWIDTH 8 0
BBX 6 21 1 -5
BITMAP
F0
F0
38
38
38
38
38
38
38
3C
1C
38
38
38
38
38
38
38
38
F0
F0
ENDCHAR
STARTCHAR 007E
ENCODING 126
SWIDTH 585 0
DWIDTH 13 0
BBX 11 4 1 5
BITMAP
3800
7FE0
EFC0
0780
ENDCHAR
STARTCHAR 00A0
ENCODING 160
SWIDTH 270 0
DWIDTH 6 0
BBX 0 0 0 0
BITMAP
ENDCHAR
STARTCHAR 00A1
ENCODING 161
SWIDTH 315 0
DWIDTH 7 0
BBX 4 16 1 -1
BITMAP
70
F0
F0
70
00
70
70
70
70
70
70
70
70
70
70
70
ENDCHAR
STARTCHAR 00A2
ENCODING 162
SWIDTH 405 0
DWIDTH 9 0
BBX 8 13 1 -2
BITMAP
08
08
3E
7F
FE
E0
E0
E0
FE
7F
3E
08
08
ENDCHAR
STARTCHAR 00A3
ENCODING 163
SWIDTH 630 0
DWIDTH 14 0
BBX 12 15 1 0
BITMAP
1F00
3FC0
7FC0
70C0
7080
7000
7000
3800
FF00
FF00
1C00
1C00
7EF0
FFE0
C3C0
ENDCHAR
STARTCHAR 00A4
ENCODING 164
SWIDTH 540 0
DWIDTH 12 0
BBX 10 10 1 2
BITMAP
FEC0
FFC0
FF80
E3C0
E1C0
E1C0
E3C0
FF80
FFC0
DEC0
ENDCHAR
STARTCHAR 00A5
ENCODING 165
SWIDTH 585 0
DWIDTH 13 0
BBX 13 15 0 0
BITMAP
F078
F0F0
78F0
79E0
3DE0
1FC0
1FC0
7FF0
7FF0
0700
0700
7FF0
7FF0
0700
0700
ENDCHAR
STARTCHAR 00A6
ENCODING 166
SWIDTH 225 0
DWIDTH 5 0
BBX 3 16 1 0
BITMAP
E0
E0
E0
E0
E0
E0
00
00
00
00
E0
E0
E0
E0
E0
E0
ENDCHAR
STARTCHAR 00A7
ENCODING 167
SWIDTH 540 0
DWIDTH 12 0
BBX 10 20 1 -5
BITMAP
3E00
7F00
7F80
F300
F000
7C00
3F00
7F80
E7C0
E1C0
E1C0
FB80
FF00
7F00
0F80
0780
E380
FF80
FF00
3E00
ENDCHAR
STARTCHAR 00A8
ENCODING 168
SWIDTH 495 0
DWIDTH 11 0
BBX 8 3 1 11
BITMAP
66
E7
67
ENDCHAR
STARTCHAR 00A9
ENCODING 169
SWIDTH 765 0
DWIDTH 17 0
BBX 15 15 1 0
BITMAP
0FC0
1FF0
7838
601C
C78C
CF8C
CC06
8C06
CC06
CF8C
C78C
601C
7838
1FF0
0FC0
ENDCHAR
STARTCHAR 00AA
ENCODING 170
SWIDTH 405 0
DWIDTH 9 0
BBX 7 6 1 9
BITMAP
7E
7E
C6
C6
7E
78
ENDCHAR
STARTCHAR 00AB
ENCODING 171
SWIDTH 495 0
DWIDTH 11 0
BBX 9 9 1 0
BITMAP
1100
3380
7700
E600
CE00
E600
7300
3B80
0100
ENDCHAR
STARTCHAR 00AC
ENCODING 172
SWIDTH 495 0
DWIDTH 11 0
BBX 9 5 1 2
BITMAP
FF80
FF80
FF80
0380
0380
ENDCHAR
STARTCHAR 00AD
ENCODING 173
SWIDTH 360 0
DWIDTH 8 0
BBX 6 3 1 4
BITMAP
FC
FC
FC
ENDCHAR
STARTCHAR 00AE
ENCODING 174
SWIDTH 405 0
DWIDTH 9 0
BBX 7 8 1 7
BITMAP
38
C6
BA
AA
B2
AA
C6
38
ENDCHAR
STARTCHAR 00AF
ENCODING 175
SWIDTH 450 0
DWIDTH 10 0
BBX 8 2 1 11
BITMAP
FF
FF
ENDCHAR
STARTCHAR 00B0
ENCODING 176
SWIDTH 315 0
DWIDTH 7 0
BBX 4 4 1 12
BITMAP
70
D0
D0
70
ENDCHAR
STARTCHAR 00B1
ENCODING 177
SWIDTH 540 0
DWIDTH 12 0
BBX 9 12 1 1
BITMAP
1C00
1C00
1C00
FF80
FF80
FF80
1C00
1C00
0000
FF80
FF80
FF80
ENDCHAR
STARTCHAR 00B2
ENCODING 178
SWIDTH 225 0
DWIDTH 5 0
BBX 4 6 1 9
BITMAP
E0
90
30
20
C0
F0
ENDCHAR
STARTCHAR 00B3
ENCODING 179
SWIDTH 225 0
DWIDTH 5 0
BBX 4 6 0 9
BITMAP
70
10
30
10
D0
70
ENDCHAR
STARTCHAR 00B4
ENCODING 180
SWIDTH 495 0
DWIDTH 11 0
BBX 4 4 3 11
BITMAP
10
70
F0
C0
ENDCHAR
STARTCHAR 00B5
ENCODING 181
SWIDTH 540 0
DWIDTH 12 0
BBX 10 13 1 -4
BITMAP
E1C0
E1C0
E1C0
E1C0
E1C0
E3C0
FFC0
FF80
FE00
E000
E000
E000
E000
ENDCHAR
STARTCHAR 00B6
ENCODING 182
SWIDTH 540 0
DWIDTH 12 0
BBX 11 15 0 0
BITMAP
1FE0
7FE0
7F60
FF60
FF60
FF60
7F60
7F60
3F60
0360
0360
0360
0360
0360
0360
ENDCHAR
STARTCHAR 00B7
ENCODING 183
SWIDTH 270 0
DWIDTH 6 0
BBX 4 4 1 3
BITMAP
60
F0
F0
60
ENDCHAR
STARTCHAR 00B8
ENCODING 184
SWIDTH 360 0
DWIDTH 8 0
BBX 5 5 2 -5
BITMAP
60
70
18
F8
F0
ENDCHAR
STARTCHAR 00B9
ENCODING 185
SWIDTH 135 0
DWIDTH 3 0
BBX 2 6 0 9
BITMAP
40
C0
40
40
40
40
ENDCHAR
STARTCHAR 00BA
ENCODING 186
SWIDTH 450 0
DWIDTH 10 0
BBX 7 6 1 9
BITMAP
3C
7E
C6
C6
7E
3C
ENDCHAR
STARTCHAR 00BB
ENCODING 187
SWIDTH 495 0
DWIDTH 11 0
BBX 9 9 1 0
BITMAP
4400
EE00
6700
3380
3980
7380
6700
EE00
4400
ENDCHAR
STARTCHAR 00BC
ENCODING 188
SWIDTH 720 0
DWIDTH 16 0
BBX 14 15 1 0
BITMAP
2030
E060
E0C0
60C0
6180
6180
6300
6338
6678
0658
0CD8
1998
19FC
3018
3018
ENDCHAR
STARTCHAR 00BD
ENCODING 189
SWIDTH 765 0
DWIDTH 17 0
BBX 15 15 1 0
BITMAP
6030
E060
E0C0
60C0
6180
6180
633C
637E
6646
0C06
0C0E
181C
1838
307E
307E
ENDCHAR
STARTCHAR 00BE
ENCODING 190
SWIDTH 765 0
DWIDTH 17 0
BBX 15 15 1 0
BITMAP
7818
FC30
4C30
1860
1860
0CC0
CCC0
FD9C
7B3C
033C
066C
064C
0CFE
0C0C
180C
ENDCHAR
STARTCHAR 00BF
ENCODING 191
SWIDTH 495 0
DWIDTH 11 0
BBX 10 15 0 0
BITMAP
0E00
1E00
1E00
0E00
0000
0E00
0E00
0E00
3C00
7800
7000
F1C0
7FC0
7F80
1F00
ENDCHAR
STARTCHAR 00C0
ENCODING 192
SWIDTH 675 0
DWIDTH 15 0
BBX 15 20 0 0
BITMAP
0400
0E00
0700
0380
0000
0780
07C0
07C0
0FC0
0FE0
0EE0
1CE0
1C70
3C70
3FF8
3FF8
7FF8
703C
F01C
F01E
ENDCHAR
STARTCHAR 00C1
ENCODING 193
SWIDTH 675 0
DWIDTH 15 0
BBX 15 20 0 0
BITMAP
0080
01C0
03C0
0300
0000
0780
07C0
07C0
0FC0
0FE0
0EE0
1CE0
1C70
3C70
3FF8
3FF8
7FF8
703C
F01C
F01E
ENDCHAR
STARTCHAR 00C2
ENCODING 194
SWIDTH 675 0
DWIDTH 15 0
BBX 15 20 0 0
BITMAP
0300
07C0
1EE0
0840
0000
0780
07C0
07C0
0FC0
0FE0
0EE0
1CE0
1C70
3C70
3FF8
3FF8
7FF8
703C
F01C
F01E
ENDCHAR
STARTCHAR 00C3
ENCODING 195
SWIDTH 675 0
DWIDTH 15 0
BBX 15 19 0 0
BITMAP
0F60
0FE0
19C0
0000
0780
07C0
07C0
0FC0
0FE0
0EE0
1CE0
1C70
3C70
3FF8
3FF8
7FF8
703C
F01C
F01E
ENDCHAR
STARTCHAR 00C4
ENCODING 196
SWIDTH 675 0
DWIDTH 15 0
BBX 15 19 0 0
BITMAP
0CE0
1EE0
0CE0
0000
0780
07C0
07C0
0FC0
0FE0
0EE0
1CE0
1C70
3C70
3FF8
3FF8
7FF8
703C
F01C
F01E
ENDCHAR
STARTCHAR 00C5
ENCODING 197
SWIDTH 675 0
DWIDTH 15 0
BBX 15 20 0 0
BITMAP
0380
06C0
06C0
0780
0000
0780
07C0
07C0
0FC0
0FE0
0EE0
1CE0
1C70
3C70
3FF8
3FF8
7FF8
703C
F01C
F01E
ENDCHAR
STARTCHAR 00C6
ENCODING 198
SWIDTH 855 0
DWIDTH 19 0
BBX 18 15 0 0
BITMAP
01FFC0
01FFC0
03FFC0
03F000
07F000
077000
0F7FC0
0E7FC0
1E7FC0
1C7000
3FF000
3FF000
787FC0
707FC0
F07FC0
ENDCHAR
STARTCHAR 00C7
ENCODING 199
SWIDTH 630 0
DWIDTH 14 0
BBX 12 20 1 -5
BITMAP
07E0
1FF0
3FF0
7C60
F000
F000
E000
E000
E000
F000
F000
7C60
7FF0
1FF0
0FE0
0100
03C0
00C0
07C0
0780
ENDCHAR
STARTCHAR 00C8
ENCODING 200
SWIDTH 540 0
DWIDTH 12 0
BBX 9 20 1 0
BITMAP
2000
7000
3800
0C00
0000
FF80
FF80
FF80
E000
E000
E000
FF80
FF80
FF80
E000
E000
E000
FF80
FF80
FF80
ENDCHAR
STARTCHAR 00C9
ENCODING 201
SWIDTH 540 0
DWIDTH 12 0
BBX 9 20 1 0
BITMAP
0400
0E00
1E00
1800
0000
FF80
FF80
FF80
E000
E000
E000
FF80
FF80
FF80
E000
E000
E000
FF80
FF80
FF80
ENDCHAR
STARTCHAR 00CA
ENCODING 202
SWIDTH 540 0
DWIDTH 12 0
BBX 9 20 1 0
BITMAP
1800
3E00
7700
6300
0000
FF80
FF80
FF80
E000
E000
E000
FF80
FF80
FF80
E000
E000
E000
FF80
FF80
FF80
ENDCHAR
STARTCHAR 00CB
ENCODING 203
SWIDTH 540 0
DWIDTH 12 0
BBX 9 19 1 0
BITMAP
6700
7700
6700
0000
FF80
FF80
FF80
E000
E000
E000
FF80
FF80
FF80
E000
E000
E000
FF80
FF80
FF80
ENDCHAR
STARTCHAR 00CC
ENCODING 204
SWIDTH 270 0
DWIDTH 6 0
BBX 4 20 0 0
BITMAP
80
E0
F0
30
00
70
70
70
70
70
70
70
70
70
70
70
70
70
70
70
ENDCHAR
STARTCHAR 00CD
ENCODING 205
SWIDTH 270 0
DWIDTH 6 0
BBX 5 20 1 0
BITMAP
10
38
F0
C0
00
E0
E0
E0
E0
E0
E0
E0
E0
E0
E0
E0
E0
E0
E0
E0
ENDCHAR
STARTCHAR 00CE
ENCODING 206
SWIDTH 270 0
DWIDTH 6 0
BBX 7 20 -1 0
BITMAP
18
7C
EE
C6
00
38
38
38
38
38
38
38
38
38
38
38
38
38
38
38
ENDCHAR
STARTCHAR 00CF
ENCODING 207
SWIDTH 270 0
DWIDTH 6 0
BBX 8 19 -1 0
BITMAP
E6
EF
E6
00
38
38
38
38
38
38
38
38
38
38
38
38
38
38
38
ENDCHAR
STARTCHAR 00D0
ENCODING 208
SWIDTH 585 0
DWIDTH 13 0
BBX 12 15 0 0
BITMAP
7F00
7FC0
7FE0
71E0
70F0
7070
FC70
FC70
FC70
7070
70F0
71F0
7FE0
7FC0
7F00
ENDCHAR
STARTCHAR 00D1
ENCODING 209
SWIDTH 720 0
DWIDTH 16 0
BBX 13 20 1 0
BITMAP
0E60
1FE0
19C0
0000
0000
F838
F838
FC38
FC38
EE38
EE38
E738
E738
E3B8
E3B8
E1F8
E1F8
E0F8
E0F8
E078
ENDCHAR
STARTCHAR 00D2
ENCODING 210
SWIDTH 720 0
DWIDTH 16 0
BBX 15 19 0 1
BITMAP
0700
0780
01C0
0080
07E0
1FF8
3FFC
3C3C
781E
700E
700E
F00E
700E
700E
781E
3C3C
3FFC
1FF8
07E0
ENDCHAR
STARTCHAR 00D3
ENCODING 211
SWIDTH 720 0
DWIDTH 16 0
BBX 15 20 0 0
BITMAP
0040
00E0
01E0
0380
0000
07E0
1FF8
3FFC
3C3C
781E
700E
700E
F00E
700E
700E
781E
3C3C
3FFC
1FF8
07E0
ENDCHAR
STARTCHAR 00D4
ENCODING 212
SWIDTH 720 0
DWIDTH 16 0
BBX 15 20 0 0
BITMAP
0180
03C0
07E0
0660
0000
07E0
1FF8
3FFC
3C3C
781E
700E
700E
F00E
700E
700E
781E
3C3C
3FFC
1FF8
07E0
ENDCHAR
STARTCHAR 00D5
ENCODING 213
SWIDTH 720 0
DWIDTH 16 0
BBX 15 20 0 0
BITMAP
0730
07F0
0FE0
0000
0000
07E0
1FF8
3FFC
3C3C
781E
700E
700E
F00E
700E
700E
781E
3C3C
3FFC
1FF8
07E0
ENDCHAR
STARTCHAR 00D6
ENCODING 214
SWIDTH 720 0
DWIDTH 16 0
BBX 15 19 0 0
BITMAP
0660
0E70
0E70
0000
07E0
1FF8
3FFC
3C3C
781E
700E
700E
F00E
700E
700E
781E
3C3C
3FFC
1FF8
07E0
ENDCHAR
STARTCHAR 00D7
ENCODING 215
SWIDTH 495 0
DWIDTH 11 0
BBX 9 8 1 3
BITMAP
6300
F780
7F00
3E00
3E00
7F00
F780
6300
ENDCHAR
STARTCHAR 00D8
ENCODING 216
SWIDTH 720 0
DWIDTH 16 0
BBX 15 15 0 0
BITMAP
07E2
1FFE
3FFC
3C3C
783E
706E
70CE
F18E
730E
760E
7C1E
3C3C
3FFC
7FF8
C7E0
ENDCHAR
STARTCHAR 00D9
ENCODING 217
SWIDTH 630 0
DWIDTH 14 0
BBX 12 20 1 0
BITMAP
1800
1C00
1E00
0600
0000
E0F0
E0F0
E0F0
E0F0
E0F0
E0F0
E0F0
E0F0
E0F0
E0F0
E0F0
F1E0
7FE0
3FC0
1F00
ENDCHAR
STARTCHAR 00DA
ENCODING 218
SWIDTH 630 0
DWIDTH 14 0
BBX 12 20 1 0
BITMAP
0100
0380
0700
0C00
0000
E0F0
E0F0
E0F0
E0F0
E0F0
E0F0
E0F0
E0F0
E0F0
E0F0
E0F0
F1E0
7FE0
3FC0
1F00
ENDCHAR
STARTCHAR 00DB
ENCODING 219
SWIDTH 630 0
DWIDTH 14 0
BBX 12 20 1 0
BITMAP
0600
1F00
3BC0
1080
0000
E0F0
E0F0
E0F0
E0F0
E0F0
E0F0
E0F0
E0F0
E0F0
E0F0
E0F0
F1E0
7FE0
3FC0
1F00
ENDCHAR
STARTCHAR 00DC
ENCODING 220
SWIDTH 630 0
DWIDTH 14 0
BBX 12 19 1 0
BITMAP
3980
3BC0
3980
0000
E0F0
E0F0
E0F0
E0F0
E0F0
E0F0
E0F0
E0F0
E0F0
E0F0
E0F0
F1E0
7FE0
3FC0
1F00
ENDCHAR
STARTCHAR 00DD
ENCODING 221
SWIDTH 585 0
DWIDTH 13 0
BBX 13 20 0 0
BITMAP
0100
0380
0780
0600
0000
F078
F0F0
78F0
79E0
3DE0
1FC0
1FC0
0F80
0F80
0700
0700
0700
0700
0700
0700
ENDCHAR
STARTCHAR 00DE
ENCODING 222
SWIDTH 540 0
DWIDTH 12 0
BBX 10 15 1 0
BITMAP
E000
E000
E000
FF00
FF80
FFC0
E1C0
E1C0
E3C0
FFC0
FF80
FF00
E000
E000
E000
ENDCHAR
STARTCHAR 00DF
ENCODING 223
SWIDTH 540 0
DWIDTH 12 0
BBX 10 16 1 0
BITMAP
1F00
3F80
7F80
71C0
E1C0
E1C0
E380
E780
E780
E3C0
E1C0
E1C0
E1C0
E7C0
E780
E700
ENDCHAR
STARTCHAR 00E0
ENCODING 224
SWIDTH 585 0
DWIDTH 13 0
BBX 11 15 0 0
BITMAP
0400
0E00
0F00
0380
0100
0000
1EE0
3FE0
7FE0
70E0
F0E0
70E0
7FE0
3FE0
1EE0
ENDCHAR
STARTCHAR 00E1
ENCODING 225
SWIDTH 585 0
DWIDTH 13 0
BBX 11 15 0 0
BITMAP
0100
0300
0700
0E00
0800
0000
1EE0
3FE0
7FE0
70E0
F0E0
70E0
7FE0
3FE0
1EE0
ENDCHAR
STARTCHAR 00E2
ENCODING 226
SWIDTH 585 0
DWIDTH 13 0
BBX 11 14 0 0
BITMAP
0600
0F00
1F80
19C0
0000
1EE0
3FE0
7FE0
70E0
F0E0
70E0
7FE0
3FE0
1EE0
ENDCHAR
STARTCHAR 00E3
ENCODING 227
SWIDTH 585 0
DWIDTH 13 0
BBX 11 14 0 0
BITMAP
1CC0
1FC0
3F80
0000
0000
1EE0
3FE0
7FE0
70E0
F0E0
70E0
7FE0
3FE0
1EE0
ENDCHAR
STARTCHAR 00E4
ENCODING 228
SWIDTH 585 0
DWIDTH 13 0
BBX 11 13 0 0
BITMAP
19C0
3DC0
19C0
0000
1EE0
3FE0
7FE0
70E0
F0E0
70E0
7FE0
3FE0
1EE0
ENDCHAR
STARTCHAR 00E5
ENCODING 229
SWIDTH 585 0
DWIDTH 13 0
BBX 11 15 0 0
BITMAP
0F00
1F80
1980
1F80
0F00
0000
1EE0
3FE0
7FE0
70E0
F0E0
70E0
7FE0
3FE0
1EE0
ENDCHAR
STARTCHAR 00E6
ENCODING 230
SWIDTH 765 0
DWIDTH 17 0
BBX 16 9 1 0
BITMAP
FC78
FEFE
47CE
3BFF
FFFF
E780
E7CC
FFFE
7C7C
ENDCHAR
STARTCHAR 00E7
ENCODING 231
SWIDTH 405 0
DWIDTH 9 0
BBX 8 14 1 -5
BITMAP
3E
7F
FE
E0
E0
E0
FE
7F
3E
10
3C
0C
7C
78
ENDCHAR
STARTCHAR 00E8
ENCODING 232
SWIDTH 495 0
DWIDTH 11 0
BBX 10 15 0 0
BITMAP
0800
1C00
1E00
0700
0000
0000
1F00
3F80
71C0
7FC0
FFC0
7000
7980
3FC0
1F80
ENDCHAR
STARTCHAR 00E9
ENCODING 233
SWIDTH 495 0
DWIDTH 11 0
BBX 10 15 0 0
BITMAP
0200
0700
0F00
1C00
0800
0000
1F00
3F80
71C0
7FC0
FFC0
7000
7980
3FC0
1F80
ENDCHAR
STARTCHAR 00EA
ENCODING 234
SWIDTH 495 0
DWIDTH 11 0
BBX 10 14 0 0
BITMAP
0400
1E00
3F80
3180
0000
1F00
3F80
71C0
7FC0
FFC0
7000
7980
3FC0
1F80
ENDCHAR
STARTCHAR 00EB
ENCODING 235
SWIDTH 495 0
DWIDTH 11 0
BBX 10 13 0 0
BITMAP
3B80
3B80
3980
0000
1F00
3F80
71C0
7FC0
FFC0
7000
7980
3FC0
1F80
ENDCHAR
STARTCHAR 00EC
ENCODING 236
SWIDTH 225 0
DWIDTH 5 0
BBX 5 15 0 0
BITMAP
40
E0
70
38
00
00
70
70
70
70
70
70
70
70
70
ENDCHAR
STARTCHAR 00ED
ENCODING 237
SWIDTH 225 0
DWIDTH 5 0
BBX 5 15 0 0
BITMAP
10
38
70
E0
00
00
70
70
70
70
70
70
70
70
70
ENDCHAR
STARTCHAR 00EE
ENCODING 238
SWIDTH 225 0
DWIDTH 5 0
BBX 7 14 -1 0
BITMAP
30
7C
EE
C6
00
38
38
38
38
38
38
38
38
38
ENDCHAR
STARTCHAR 00EF
ENCODING 239
SWIDTH 225 0
DWIDTH 5 0
BBX 7 13 -1 0
BITMAP
EE
EE
CE
00
38
38
38
38
38
38
38
38
38
ENDCHAR
STARTCHAR 00F0
ENCODING 240
SWIDTH 540 0
DWIDTH 12 0
BBX 11 16 1 0
BITMAP
6200
7E00
7E00
3F00
3F00
3380
03C0
3FC0
7FC0
FFC0
E1E0
E1E0
E1C0
FFC0
7F80
1F00
ENDCHAR
STARTCHAR 00F1
ENCODING 241
SWIDTH 540 0
DWIDTH 12 0
BBX 10 14 1 0
BITMAP
3980
7F80
7F00
0000
0000
EF00
FF80
F3C0
E1C0
E1C0
E1C0
E1C0
E1C0
E1C0
ENDCHAR
STARTCHAR 00F2
ENCODING 242
SWIDTH 495 0
DWIDTH 11 0
BBX 11 15 0 0
BITMAP
0800
0C00
0E00
0700
0100
0000
1F00
3F80
7FC0
71E0
F1E0
71E0
7FC0
3F80
1F00
ENDCHAR
STARTCHAR 00F3
ENCODING 243
SWIDTH 495 0
DWIDTH 11 0
BBX 11 15 0 0
BITMAP
0200
0700
0F00
1C00
0800
0000
1F00
3F80
7FC0
71E0
F1E0
71E0
7FC0
3F80
1F00
ENDCHAR
STARTCHAR 00F4
ENCODING 244
SWIDTH 495 0
DWIDTH 11 0
BBX 11 14 0 0
BITMAP
0400
0E00
3F80
3180
0000
1F00
3F80
7FC0
71E0
F1E0
71E0
7FC0
3F80
1F00
ENDCHAR
STARTCHAR 00F5
ENCODING 245
SWIDTH 495 0
DWIDTH 11 0
BBX 11 14 0 0
BITMAP
1C80
3F80
7F00
0000
0000
1F00
3F80
7FC0
71E0
F1E0
71E0
7FC0
3F80
1F00
ENDCHAR
STARTCHAR 00F6
ENCODING 246
SWIDTH 495 0
DWIDTH 11 0
BBX 11 13 0 0
BITMAP
3980
3BC0
3980
0000
1F00
3F80
7FC0
71E0
F1E0
71E0
7FC0
3F80
1F00
ENDCHAR
STARTCHAR 00F7
ENCODING 247
SWIDTH 540 0
DWIDTH 12 0
BBX 9 11 1 2
BITMAP
0C00
1C00
1C00
0000
FF80
FF80
FF80
0000
0C00
1C00
0C00
ENDCHAR
STARTCHAR 00F8
ENCODING 248
SWIDTH 495 0
DWIDTH 11 0
BBX 11 9 0 0
BITMAP
1F60
3FC0
7FC0
73E0
F5E0
79E0
7FC0
7F80
DF00
ENDCHAR
STARTCHAR 00F9
ENCODING 249
SWIDTH 540 0
DWIDTH 12 0
BBX 10 15 1 0
BITMAP
0800
1C00
1E00
0600
0200
0000
E1C0
E1C0
E1C0
E1C0
E1C0
E3C0
FFC0
7F80
3E00
ENDCHAR
STARTCHAR 00FA
ENCODING 250
SWIDTH 540 0
DWIDTH 12 0
BBX 10 15 1 0
BITMAP
0400
0E00
1E00
1800
1000
0000
E1C0
E1C0
E1C0
E1C0
E1C0
E3C0
FFC0
7F80
3E00
ENDCHAR
STARTCHAR 00FB
ENCODING 251
SWIDTH 540 0
DWIDTH 12 0
BBX 10 14 1 0
BITMAP
0C00
1E00
7F80
2100
0000
E1C0
E1C0
E1C0
E1C0
E1C0
E3C0
FFC0
7F80
3E00
ENDCHAR
STARTCHAR 00FC
ENCODING 252
SWIDTH 540 0
DWIDTH 12 0
BBX 10 13 1 0
BITMAP
7380
7380
3300
0000
E1C0
E1C0
E1C0
E1C0
E1C0
E3C0
FFC0
7F80
3E00
ENDCHAR
STARTCHAR 00FD
ENCODING 253
SWIDTH 495 0
DWIDTH 11 0
BBX 11 20 0 -5
BITMAP
0200
0700
0F00
1C00
0000
0000
E0E0
71E0
71C0
79C0
3B80
3B80
1F00
1F00
1E00
0E00
1E00
1C00
3C00
3800
ENDCHAR
STARTCHAR 00FE
ENCODING 254
SWIDTH 540 0
DWIDTH 12 0
BBX 11 21 1 -5
BITMAP
E000
E000
E000
E000
E000
E000
E000
EF00
FFC0
FFC0
F1E0
E1E0
F1E0
FFC0
FFC0
E700
E000
E000
E000
E000
E000
ENDCHAR
STARTCHAR 00FF
ENCODING 255
SWIDTH 495 0
DWIDTH 11 0
BBX 11 18 0 -5
BITMAP
3980
3BC0
3980
0000
E0E0
71E0
71C0
79C0
3B80
3B80
1F00
1F00
1E00
0E00
1E00
1C00
3C00
3800
ENDCHAR
STARTCHAR 0100
ENCODING 256
SWIDTH 675 0
DWIDTH 15 0
BBX 15 18 0 0
BITMAP
0FE0
0FE0
0000
0780
07C0
07C0
0FC0
0FE0
0EE0
1CE0
1C70
3C70
3FF8
3FF8
7FF8
703C
F01C
F01E
ENDCHAR
STARTCHAR 0101
ENCODING 257
SWIDTH 540 0
DWIDTH 12 0
BBX 11 13 0 0
BITMAP
3FC0
3FC0
0000
0000
1EE0
3FE0
7FE0
70E0
F0E0
70E0
7FE0
3FE0
1EE0
ENDCHAR
STARTCHAR 0102
ENCODING 258
SWIDTH 675 0
DWIDTH 15 0
BBX 15 19 0 0
BITMAP
0C60
0FC0
0780
0000
0780
07C0
07C0
0FC0
0FE0
0EE0
1CE0
1C70
3C70
3FF8
3FF8
7FF8
703C
F01C
F01E
ENDCHAR
STARTCHAR 0103
ENCODING 259
SWIDTH 540 0
DWIDTH 12 0
BBX 11 15 0 0
BITMAP
30C0
39C0
1F80
0F00
0000
0000
1EE0
3FE0
7FE0
70E0
F0E0
70E0
7FE0
3FE0
1EE0
ENDCHAR
STARTCHAR 0104
ENCODING 260
SWIDTH 675 0
DWIDTH 15 0
BBX 15 20 0 -5
BITMAP
0780
07C0
07C0
0FC0
0FE0
0EE0
1CE0
1C70
3C70
3FF8
3FF8
7FF8
703C
F01C
F01E
0010
0030
0020
003C
0038
ENDCHAR
STARTCHAR 0105
ENCODING 261
SWIDTH 540 0
DWIDTH 12 0
BBX 12 14 0 -5
BITMAP
1EE0
3FE0
7FE0
70E0
F0E0
70E0
7FE0
3FE0
1EE0
00C0
0080
0180
01F0
00E0
ENDCHAR
STARTCHAR 0106
ENCODING 262
SWIDTH 630 0
DWIDTH 14 0
BBX 12 20 1 0
BITMAP
0080
01C0
03C0
0700
0000
07E0
1FF0
3FF0
7C60
F000
F000
E000
E000
E000
F000
F000
7C60
3FF0
1FF0
07E0
ENDCHAR
STARTCHAR 0107
ENCODING 263
SWIDTH 405 0
DWIDTH 9 0
BBX 8 15 1 0
BITMAP
04
0E
1E
38
10
00
3E
7F
FE
E0
E0
E0
FE
7F
3E
ENDCHAR
STARTCHAR 0108
ENCODING 264
SWIDTH 630 0
DWIDTH 14 0
BBX 12 20 1 0
BITMAP
0300
0780
1FC0
08C0
0000
07E0
1FF0
3FF0
7C60
F000
F000
E000
E000
E000
F000
F000
7C60
3FF0
1FF0
07E0
ENDCHAR
STARTCHAR 0109
ENCODING 265
SWIDTH 405 0
DWIDTH 9 0
BBX 8 14 1 0
BITMAP
10
3C
FE
C6
00
3E
7F
FE
E0
E0
E0
FE
7F
3E
ENDCHAR
STARTCHAR 010A
ENCODING 266
SWIDTH 630 0
DWIDTH 14 0
BBX 12 19 1 0
BITMAP
0300
0780
0300
0000
07E0
1FF0
3FF0
7C60
F000
F000
E000
E000
E000
F000
F000
7C60
3FF0
1FF0
07E0
ENDCHAR
STARTCHAR 010B
ENCODING 267
SWIDTH 405 0
DWIDTH 9 0
BBX 8 14 1 0
BITMAP
18
3C
18
00
00
3E
7F
FE
E0
E0
E0
FE
7F
3E
ENDCHAR
STARTCHAR 010C
ENCODING 268
SWIDTH 630 0
DWIDTH 14 0
BBX 12 19 1 0
BITMAP
08C0
0FC0
0780
0000
07E0
1FF0
3FF0
7C60
F000
F000
E000
E000
E000
F000
F000
7C60
3FF0
1FF0
07E0
ENDCHAR
STARTCHAR 010D
ENCODING 269
SWIDTH 405 0
DWIDTH 9 0
BBX 8 15 1 0
BITMAP
42
E7
7E
3C
10
00
3E
7F
FE
E0
E0
E0
FE
7F
3E
ENDCHAR
STARTCHAR 010E
ENCODING 270
SWIDTH 585 0
DWIDTH 13 0
BBX 11 19 1 0
BITMAP
3300
1F00
0E00
0000
FE00
FF80
FFC0
E3C0
E1E0
E0E0
E0E0
E0E0
E0E0
E0E0
E1E0
E3C0
FFC0
FF80
FE00
ENDCHAR
STARTCHAR 010F
ENCODING 271
SWIDTH 630 0
DWIDTH 14 0
BBX 15 16 0 0
BITMAP
00E6
00E6
00E6
00E2
00E4
00E0
00E0
1EE0
3FE0
7FE0
70E0
F0E0
70E0
7FE0
3FE0
1EE0
ENDCHAR
STARTCHAR 0110
ENCODING 272
SWIDTH 585 0
DWIDTH 13 0
BBX 12 15 0 0
BITMAP
7F00
7FC0
7FE0
71E0
70F0
7070
FC70
FC70
FC70
7070
70F0
71F0
7FE0
7FC0
7F00
ENDCHAR
STARTCHAR 0111
ENCODING 273
SWIDTH 540 0
DWIDTH 12 0
BBX 12 16 0 0
BITMAP
00E0
00E0
03F0
03F0
00E0
00E0
00E0
1EE0
3FE0
7FE0
70E0
F0E0
70E0
7FE0
3FE0
1EE0
ENDCHAR
STARTCHAR 0112
ENCODING 274
SWIDTH 540 0
DWIDTH 12 0
BBX 9 18 1 0
BITMAP
7F00
7F00
0000
FF80
FF80
FF80
E000
E000
E000
FF80
FF80
FF80
E000
E000
E000
FF80
FF80
FF80
ENDCHAR
STARTCHAR 0113
ENCODING 275
SWIDTH 495 0
DWIDTH 11 0
BBX 10 13 0 0
BITMAP
3F80
3F80
0000
0000
1F00
3F80
71C0
7FC0
FFC0
7000
7980
3FC0
1F80
ENDCHAR
STARTCHAR 0114
ENCODING 276
SWIDTH 540 0
DWIDTH 12 0
BBX 9 19 1 0
BITMAP
6300
7E00
3C00
0000
FF80
FF80
FF80
E000
E000
E000
FF80
FF80
FF80
E000
E000
E000
FF80
FF80
FF80
ENDCHAR
STARTCHAR 0115
ENCODING 277
SWIDTH 495 0
DWIDTH 11 0
BBX 10 14 0 0
BITMAP
1100
7180
3F80
1F00
0000
1F00
3F80
71C0
7FC0
FFC0
7000
7980
3FC0
1F80
ENDCHAR
STARTCHAR 0116
ENCODING 278
SWIDTH 540 0
DWIDTH 12 0
BBX 9 19 1 0
BITMAP
1800
1C00
1C00
0000
FF80
FF80
FF80
E000
E000
E000
FF80
FF80
FF80
E000
E000
E000
FF80
FF80
FF80
ENDCHAR
STARTCHAR 0117
ENCODING 279
SWIDTH 495 0
DWIDTH 11 0
BBX 10 14 0 0
BITMAP
0C00
0E00
0E00
0000
0000
1F00
3F80
71C0
7FC0
FFC0
7000
7980
3FC0
1F80
ENDCHAR
STARTCHAR 0118
ENCODING 280
SWIDTH 540 0
DWIDTH 12 0
BBX 9 20 1 -5
BITMAP
FF80
FF80
FF80
E000
E000
E000
FF80
FF80
FF80
E000
E000
E000
FF80
FF80
FF80
0400
0C00
0C00
0F00
0700
ENDCHAR
STARTCHAR 0119
ENCODING 281
SWIDTH 495 0
DWIDTH 11 0
BBX 10 14 0 -5
BITMAP
1F00
3F80
71C0
7FC0
FFC0
7000
7980
3FC0
1F80
0600
0400
0C00
0F80
0700
ENDCHAR
STARTCHAR 011A
ENCODING 282
SWIDTH 540 0
DWIDTH 12 0
BBX 9 19 1 0
BITMAP
6200
3E00
1C00
0000
FF80
FF80
FF80
E000
E000
E000
FF80
FF80
FF80
E000
E000
E000
FF80
FF80
FF80
ENDCHAR
STARTCHAR 011B
ENCODING 283
SWIDTH 495 0
DWIDTH 11 0
BBX 10 15 0 0
BITMAP
2100
7380
3F00
1E00
0400
0000
1F00
3F80
71C0
7FC0
FFC0
7000
7980
3FC0
1F80
ENDCHAR
STARTCHAR 011C
ENCODING 284
SWIDTH 720 0
DWIDTH 16 0
BBX 15 20 0 0
BITMAP
0180
03C0
07E0
0660
0000
07E0
1FF8
3FFC
7C3C
7810
7000
F000
F0FE
70FE
700E
781E
3C3C
3FFC
1FF8
07E0
ENDCHAR
STARTCHAR 011D
ENCODING 285
SWIDTH 585 0
DWIDTH 13 0
BBX 11 19 0 -5
BITMAP
0200
0F00
1F80
19C0
0000
1EE0
3FE0
7FE0
70E0
F0E0
70E0
7FE0
3FE0
1EE0
00E0
20E0
7FE0
7FC0
1F00
ENDCHAR
STARTCHAR 011E
ENCODING 286
SWIDTH 720 0
DWIDTH 16 0
BBX 15 19 0 0
BITMAP
0E70
07E0
03C0
0000
07E0
1FF8
3FFC
7C3C
7810
7000
F000
F0FE
70FE
700E
781E
3C3C
3FFC
1FF8
07E0
ENDCHAR
STARTCHAR 011F
ENCODING 287
SWIDTH 540 0
DWIDTH 12 0
BBX 11 20 0 -5
BITMAP
3080
39C0
3F80
0F00
0000
0000
1EE0
3FE0
7FE0
70E0
F0E0
70E0
7FE0
3FE0
1EE0
00E0
20E0
7FE0
7FC0
1F00
ENDCHAR
STARTCHAR 0120
ENCODING 288
SWIDTH 720 0
DWIDTH 16 0
BBX 15 19 0 0
BITMAP
0180
03C0
0180
0000
07E0
1FF8
3FFC
7C3C
7810
7000
F000
F0FE
70FE
700E
781E
3C3C
3FFC
1FF8
07E0
ENDCHAR
STARTCHAR 0121
ENCODING 289
SWIDTH 540 0
DWIDTH 12 0
BBX 11 19 0 -5
BITMAP
0E00
0E00
0E00
0000
0000
1EE0
3FE0
7FE0
70E0
F0E0
70E0
7FE0
3FE0
1EE0
00E0
20E0
7FE0
7FC0
1F00
ENDCHAR
STARTCHAR 0122
ENCODING 290
SWIDTH 720 0
DWIDTH 16 0
BBX 15 21 0 -7
BITMAP
07E0
1FF8
3FFC
7C3C
7810
7000
F000
F0FE
70FE
700E
781E
3C3C
3FFC
1FF8
07E0
0000
01C0
01C0
01C0
0080
0180
ENDCHAR
STARTCHAR 0123
ENCODING 291
SWIDTH 585 0
DWIDTH 13 0
BBX 11 20 0 -5
BITMAP
0200
0400
0600
0600
0400
0000
1EE0
3FE0
7FE0
70E0
F0E0
70E0
7FE0
3FE0
1EE0
00E0
20E0
7FE0
7FC0
1F00
ENDCHAR
STARTCHAR 0124
ENCODING 292
SWIDTH 630 0
DWIDTH 14 0
BBX 12 20 1 0
BITMAP
0600
1F00
3BC0
1080
0000
E0F0
E0F0
E0F0
E0F0
E0F0
E0F0
FFF0
FFF0
FFF0
E0F0
E0F0
E0F0
E0F0
E0F0
E0F0
ENDCHAR
STARTCHAR 0125
ENCODING 293
SWIDTH 540 0
DWIDTH 12 0
BBX 10 22 1 0
BITMAP
0800
1E00
3F00
7300
0000
0000
E000
E000
E000
E000
E000
E000
E000
EF00
FFC0
FBC0
E1C0
E1C0
E1C0
E1C0
E1C0
E1C0
ENDCHAR
STARTCHAR 0126
ENCODING 294
SWIDTH 630 0
DWIDTH 14 0
BBX 13 15 0 0
BITMAP
7078
7078
FFF8
FFF8
7078
7078
7FF8
7FF8
7FF8
7078
7078
7078
7078
7078
7078
ENDCHAR
STARTCHAR 0127
ENCODING 295
SWIDTH 540 0
DWIDTH 12 0
BBX 11 16 0 0
BITMAP
7000
7000
FC00
FC00
7000
7000
7000
7780
7FE0
7DE0
70E0
70E0
70E0
70E0
70E0
70E0
ENDCHAR
STARTCHAR 0128
ENCODING 296
SWIDTH 270 0
DWIDTH 6 0
BBX 8 19 -1 0
BITMAP
73
FE
DE
00
38
38
38
38
38
38
38
38
38
38
38
38
38
38
38
ENDCHAR
STARTCHAR 0129
ENCODING 297
SWIDTH 225 0
DWIDTH 5 0
BBX 8 14 -2 0
BITMAP
39
7F
CE
00
00
1C
1C
1C
1C
1C
1C
1C
1C
1C
ENDCHAR
STARTCHAR 012A
ENCODING 298
SWIDTH 270 0
DWIDTH 6 0
BBX 7 18 -1 0
BITMAP
FE
FE
00
38
38
38
38
38
38
38
38
38
38
38
38
38
38
38
ENDCHAR
STARTCHAR 012B
ENCODING 299
SWIDTH 225 0
DWIDTH 5 0
BBX 7 13 -1 0
BITMAP
FE
FE
00
00
38
38
38
38
38
38
38
38
38
ENDCHAR
STARTCHAR 012C
ENCODING 300
SWIDTH 270 0
DWIDTH 6 0
BBX 7 19 -1 0
BITMAP
C6
7E
3C
00
38
38
38
38
38
38
38
38
38
38
38
38
38
38
38
ENDCHAR
STARTCHAR 012D
ENCODING 301
SWIDTH 225 0
DWIDTH 5 0
BBX 8 14 -2 0
BITMAP
42
E3
7F
3C
00
1C
1C
1C
1C
1C
1C
1C
1C
1C
ENDCHAR
STARTCHAR 012E
ENCODING 302
SWIDTH 270 0
DWIDTH 6 0
BBX 5 20 0 -5
BITMAP
70
70
70
70
70
70
70
70
70
70
70
70
70
70
70
60
40
C0
F8
70
ENDCHAR
STARTCHAR 012F
ENCODING 303
SWIDTH 270 0
DWIDTH 6 0
BBX 5 20 0 -5
BITMAP
70
78
78
30
00
00
70
70
70
70
70
70
70
70
70
60
40
C0
F8
70
ENDCHAR
STARTCHAR 0130
ENCODING 304
SWIDTH 270 0
DWIDTH 6 0
BBX 3 19 1 0
BITMAP
60
E0
E0
00
E0
E0
E0
E0
E0
E0
E0
E0
E0
E0
E0
E0
E0
E0
E0
ENDCHAR
STARTCHAR 0131
ENCODING 305
SWIDTH 225 0
DWIDTH 5 0
BBX 3 9 1 0
BITMAP
E0
E0
E0
E0
E0
E0
E0
E0
E0
ENDCHAR
STARTCHAR 0134
ENCODING 308
SWIDTH 405 0
DWIDTH 9 0
BBX 10 20 0 0
BITMAP
0600
0F80
3DC0
1080
0000
0F00
0F00
0F00
0F00
0F00
0F00
0F00
0F00
0F00
0F00
0F00
4F00
FE00
FE00
7800
ENDCHAR
STARTCHAR 0135
ENCODING 309
SWIDTH 270 0
DWIDTH 6 0
BBX 8 19 -1 -5
BITMAP
18
3C
FF
42
00
3C
3C
3C
3C
3C
3C
3C
3C
3C
3C
3C
F8
F8
F0
ENDCHAR
STARTCHAR 0136
ENCODING 310
SWIDTH 585 0
DWIDTH 13 0
BBX 11 21 1 -7
BITMAP
E1E0
E3C0
E780
E700
EF00
FE00
FC00
FC00
FE00
EE00
EF00
E780
E3C0
E3C0
E1E0
0000
0E00
0E00
0E00
0400
0C00
ENDCHAR
STARTCHAR 0137
ENCODING 311
SWIDTH 495 0
DWIDTH 11 0
BBX 10 22 1 -6
BITMAP
E000
E000
E000
E000
E000
E000
E000
E380
E700
EE00
FC00
FC00
FE00
EF00
E780
E3C0
0000
1C00
1C00
1C00
0C00
1800
ENDCHAR
STARTCHAR 0138
ENCODING 312
SWIDTH 540 0
DWIDTH 12 0
BBX 10 9 1 0
BITMAP
E780
E700
EE00
FC00
FC00
FE00
EF00
E780
E3C0
ENDCHAR
STARTCHAR 0139
ENCODING 313
SWIDTH 495 0
DWIDTH 11 0
BBX 9 20 1 0
BITMAP
0400
0E00
1C00
3800
0000
E000
E000
E000
E000
E000
E000
E000
E000
E000
E000
E000
E000
FF80
FF80
FF80
ENDCHAR
STARTCHAR 013A
ENCODING 314
SWIDTH 270 0
DWIDTH 6 0
BBX 5 22 1 0
BITMAP
10
38
78
E0
00
00
E0
E0
E0
E0
E0
E0
E0
E0
E0
E0
E0
E0
E0
E0
E0
E0
ENDCHAR
STARTCHAR 013B
ENCODING 315
SWIDTH 495 0
DWIDTH 11 0
BBX 9 21 1 -6
BITMAP
E000
E000
E000
E000
E000
E000
E000
E000
E000
E000
E000
E000
FF80
FF80
FF80
0000
1C00
1C00
1C00
0800
1800
ENDCHAR
STARTCHAR 013C
ENCODING 316
SWIDTH 270 0
DWIDTH 6 0
BBX 3 22 1 -6
BITMAP
E0
E0
E0
E0
E0
E0
E0
E0
E0
E0
E0
E0
E0
E0
E0
E0
00
E0
E0
E0
60
C0
ENDCHAR
STARTCHAR 013D
ENCODING 317
SWIDTH 495 0
DWIDTH 11 0
BBX 10 15 1 0
BITMAP
E0C0
E0C0
E0C0
E080
E000
E000
E000
E000
E000
E000
E000
E000
FF80
FF80
FF80
ENDCHAR
STARTCHAR 013E
ENCODING 318
SWIDTH 270 0
DWIDTH 6 0
BBX 7 16 1 0
BITMAP
E4
E6
E6
E2
E4
E0
E0
E0
E0
E0
E0
E0
E0
E0
E0
E0
ENDCHAR
STARTCHAR 013F
ENCODING 319
SWIDTH 495 0
DWIDTH 11 0
BBX 9 15 1 0
BITMAP
E000
E000
E000
E000
E000
E700
E780
E780
E700
E000
E000
E000
FF80
FF80
FF80
ENDCHAR
STARTCHAR 0140
ENCODING 320
SWIDTH 405 0
DWIDTH 9 0
BBX 8 16 1 0
BITMAP
E0
E0
E0
E0
E0
E0
EE
EF
EF
EE
E0
E0
E0
E0
E0
E0
ENDCHAR
STARTCHAR 0141
ENCODING 321
SWIDTH 495 0
DWIDTH 11 0
BBX 10 15 0 0
BITMAP
3800
3800
3800
3A00
3E00
3C00
3800
7800
F800
F800
3800
3800
3FC0
3FC0
3FC0
ENDCHAR
STARTCHAR 0142
ENCODING 322
SWIDTH 270 0
DWIDTH 6 0
BBX 6 16 0 0
BITMAP
38
38
38
38
3C
3C
3C
78
F8
F8
B8
38
38
38
38
38
ENDCHAR
STARTCHAR 0143
ENCODING 323
SWIDTH 720 0
DWIDTH 16 0
BBX 13 20 1 0
BITMAP
0080
01C0
0380
0600
0000
F838
F838
FC38
FC38
EE38
EE38
E738
E738
E3B8
E3B8
E1F8
E1F8
E0F8
E0F8
E078
ENDCHAR
STARTCHAR 0144
ENCODING 324
SWIDTH 540 0
DWIDTH 12 0
BBX 10 15 1 0
BITMAP
0100
0300
0F00
0C00
0000
0000
EF00
FF80
F3C0
E1C0
E1C0
E1C0
E1C0
E1C0
E1C0
ENDCHAR
STARTCHAR 0145
ENCODING 325
SWIDTH 720 0
DWIDTH 16 0
BBX 13 21 1 -7
BITMAP
F838
F838
FC38
FC38
EE38
EE38
E738
E738
E3B8
E3B8
E1F8
E1F8
E0F8
E0F8
E078
0000
0700
0700
0300
0100
0200
ENDCHAR
STARTCHAR 0146
ENCODING 326
SWIDTH 540 0
DWIDTH 12 0
BBX 10 15 1 -7
BITMAP
EF00
FF80
F3C0
E1C0
E1C0
E1C0
E1C0
E1C0
E1C0
0000
0C00
1C00
0C00
0400
0800
ENDCHAR
STARTCHAR 0147
ENCODING 327
SWIDTH 720 0
DWIDTH 16 0
BBX 13 19 1 0
BITMAP
0CC0
0FC0
0700
0000
F838
F838
FC38
FC38
EE38
EE38
E738
E738
E3B8
E3B8
E1F8
E1F8
E0F8
E0F8
E078
ENDCHAR
STARTCHAR 0148
ENCODING 328
SWIDTH 540 0
DWIDTH 12 0
BBX 10 15 1 0
BITMAP
2100
7700
3E00
1C00
0000
0000
EF00
FF80
F3C0
E1C0
E1C0
E1C0
E1C0
E1C0
E1C0
ENDCHAR
STARTCHAR 014A
ENCODING 330
SWIDTH 720 0
DWIDTH 16 0
BBX 13 20 1 -5
BITMAP
F838
F838
FC38
FC38
EE38
EE38
E738
E738
E3B8
E3B8
E1F8
E1F8
E0F8
E0F8
E078
0038
0038
00F8
01F8
01F0
ENDCHAR
STARTCHAR 014B
ENCODING 331
SWIDTH 540 0
DWIDTH 12 0
BBX 10 14 1 -5
BITMAP
EF00
FF80
F3C0
E1C0
E1C0
E1C0
E1C0
E1C0
E1C0
01C0
01C0
07C0
0F80
0F00
ENDCHAR
STARTCHAR 014C
ENCODING 332
SWIDTH 720 0
DWIDTH 16 0
BBX 15 19 0 0
BITMAP
07F0
07F0
0000
0000
07E0
1FF8
3FFC
3C3C
781E
700E
700E
F00E
700E
700E
781E
3C3C
3FFC
1FF8
07E0
ENDCHAR
STARTCHAR 014D
ENCODING 333
SWIDTH 495 0
DWIDTH 11 0
BBX 11 13 0 0
BITMAP
3F80
3F80
0000
0000
1F00
3F80
7FC0
71E0
F1E0
71E0
7FC0
3F80
1F00
ENDCHAR
STARTCHAR 014E
ENCODING 334
SWIDTH 720 0
DWIDTH 16 0
BBX 15 19 0 0
BITMAP
0E70
07E0
03C0
0000
07E0
1FF8
3FFC
3C3C
781E
700E
700E
F00E
700E
700E
781E
3C3C
3FFC
1FF8
07E0
ENDCHAR
STARTCHAR 014F
ENCODING 335
SWIDTH 495 0
DWIDTH 11 0
BBX 11 14 0 0
BITMAP
1100
3180
3F80
1F00
0000
1F00
3F80
7FC0
71E0
F1E0
71E0
7FC0
3F80
1F00
ENDCHAR
STARTCHAR 0150
ENCODING 336
SWIDTH 720 0
DWIDTH 16 0
BBX 15 20 0 1
BITMAP
0330
0770
0EE0
0480
0000
07E0
1FF8
3FFC
3C3C
781E
700E
700E
F00E
700E
700E
781E
3C3C
3FFC
1FF8
07E0
ENDCHAR
STARTCHAR 0151
ENCODING 337
SWIDTH 495 0
DWIDTH 11 0
BBX 11 15 0 0
BITMAP
0080
0DC0
1D80
3300
2200
0000
1F00
3F80
7FC0
71E0
F1E0
71E0
7FC0
3F80
1F00
ENDCHAR
STARTCHAR 0152
ENCODING 338
SWIDTH 810 0
DWIDTH 18 0
BBX 17 15 0 0
BITMAP
07FF80
1FFF80
3FFF80
7C7000
787000
707000
F07F80
F07F80
F07F80
707000
787000
7C7000
3FFF80
1FFF80
07FF80
ENDCHAR
STARTCHAR 0153
ENCODING 339
SWIDTH 810 0
DWIDTH 18 0
BBX 18 9 0 0
BITMAP
1F3E00
3FFF80
7FF380
71FF80
F1FFC0
71E000
7FF300
3FFF80
1F3F00
ENDCHAR
STARTCHAR 0154
ENCODING 340
SWIDTH 585 0
DWIDTH 13 0
BBX 11 20 1 0
BITMAP
0200
0700
0E00
0C00
0000
FF00
FF80
FFC0
E1C0
E1C0
E1C0
E3C0
FF80
FF00
EF00
E700
E780
E380
E3C0
E1E0
ENDCHAR
STARTCHAR 0155
ENCODING 341
SWIDTH 405 0
DWIDTH 9 0
BBX 8 15 1 0
BITMAP
04
0C
3C
38
20
00
EF
FE
FE
E0
E0
E0
E0
E0
E0
ENDCHAR
STARTCHAR 0156
ENCODING 342
SWIDTH 585 0
DWIDTH 13 0
BBX 11 21 1 -7
BITMAP
FF00
FF80
FFC0
E1C0
E1C0
E1C0
E3C0
FF80
FF00
EF00
E700
E780
E380
E3C0
E1E0
0000
0C00
1E00
0E00
0400
0C00
ENDCHAR
STARTCHAR 0157
ENCODING 343
SWIDTH 405 0
DWIDTH 9 0
BBX 8 15 1 -6
BITMAP
EF
FE
FE
E0
E0
E0
E0
E0
E0
00
38
38
38
10
30
ENDCHAR
STARTCHAR 0158
ENCODING 344
SWIDTH 585 0
DWIDTH 13 0
BBX 11 19 1 0
BITMAP
3300
3F00
0E00
0000
FF00
FF80
FFC0
E1C0
E1C0
E1C0
E3C0
FF80
FF00
EF00
E700
E780
E380
E3C0
E1E0
ENDCHAR
STARTCHAR 0159
ENCODING 345
SWIDTH 405 0
DWIDTH 9 0
BBX 8 15 1 0
BITMAP
84
CE
FC
38
10
00
EF
FE
FE
E0
E0
E0
E0
E0
E0
ENDCHAR
STARTCHAR 015A
ENCODING 346
SWIDTH 540 0
DWIDTH 12 0
BBX 11 20 0 0
BITMAP
0100
0380
0780
0E00
0000
0F80
3FE0
3FC0
7840
7800
3C00
3F00
1FC0
03E0
01E0
00E0
70E0
7FE0
FFC0
1F80
ENDCHAR
STARTCHAR 015B
ENCODING 347
SWIDTH 405 0
DWIDTH 9 0
BBX 8 15 1 0
BITMAP
08
1C
3C
78
20
00
7E
FE
E2
F8
7E
0F
CF
FE
FC
ENDCHAR
STARTCHAR 015C
ENCODING 348
SWIDTH 540 0
DWIDTH 12 0
BBX 11 20 0 0
BITMAP
0600
0F00
3F80
3180
0000
0F80
3FE0
3FC0
7840
7800
3C00
3F00
1FC0
03E0
01E0
00E0
70E0
7FE0
FFC0
1F80
ENDCHAR
STARTCHAR 015D
ENCODING 349
SWIDTH 450 0
DWIDTH 10 0
BBX 8 14 1 0
BITMAP
10
3C
FE
C6
00
7E
FE
E2
F8
7E
0F
CF
FE
FC
ENDCHAR
STARTCHAR 015E
ENCODING 350
SWIDTH 540 0
DWIDTH 12 0
BBX 11 20 0 -5
BITMAP
0F80
3FE0
3FC0
7840
7800
3C00
3F00
1FC0
07E0
01E0
00E0
60E0
7FE0
FFC0
3F80
0400
0700
0180
0F00
0F00
ENDCHAR
STARTCHAR 015F
ENCODING 351
SWIDTH 405 0
DWIDTH 9 0
BBX 8 14 1 -5
BITMAP
3E
FE
E2
F0
7E
0F
CF
FE
FC
10
3C
0C
7C
78
ENDCHAR
STARTCHAR 0160
ENCODING 352
SWIDTH 540 0
DWIDTH 12 0
BBX 11 19 0 0
BITMAP
1180
1F80
0F00
0400
0F80
3FE0
3FC0
7840
7800
3C00
3F00
1FC0
03E0
01E0
00E0
70E0
7FE0
FFC0
1F80
ENDCHAR
STARTCHAR 0161
ENCODING 353
SWIDTH 405 0
DWIDTH 9 0
BBX 8 15 1 0
BITMAP
84
EE
FC
38
10
00
7E
FE
E2
F8
7E
0F
CF
FE
FC
ENDCHAR
STARTCHAR 0162
ENCODING 354
SWIDTH 495 0
DWIDTH 11 0
BBX 10 20 0 -5
BITMAP
FFC0
FFC0
FFC0
0E00
0E00
0E00
0E00
0E00
0E00
0E00
0E00
0E00
0E00
0E00
0E00
0400
0F00
0300
1B00
0E00
ENDCHAR
STARTCHAR 0163
ENCODING 355
SWIDTH 360 0
DWIDTH 8 0
BBX 8 18 0 -5
BITMAP
38
38
38
38
FE
FE
FE
38
38
38
3E
3E
1E
08
0E
03
1E
1E
ENDCHAR
STARTCHAR 0164
ENCODING 356
SWIDTH 495 0
DWIDTH 11 0
BBX 10 19 0 0
BITMAP
3100
1F00
0E00
0000
FFC0
FFC0
FFC0
0E00
0E00
0E00
0E00
0E00
0E00
0E00
0E00
0E00
0E00
0E00
0E00
ENDCHAR
STARTCHAR 0165
ENCODING 357
SWIDTH 360 0
DWIDTH 8 0
BBX 9 14 0 0
BITMAP
0180
3980
3880
3900
3800
FE00
FE00
FE00
3800
3800
3800
3E00
3E00
1E00
ENDCHAR
STARTCHAR 0166
ENCODING 358
SWIDTH 495 0
DWIDTH 11 0
BBX 10 15 0 0
BITMAP
FFC0
FFC0
FFC0
0E00
0E00
0E00
FFC0
FFC0
0E00
0E00
0E00
0E00
0E00
0E00
0E00
ENDCHAR
STARTCHAR 0167
ENCODING 359
SWIDTH 360 0
DWIDTH 8 0
BBX 7 13 0 0
BITMAP
38
38
38
38
FE
FE
FE
38
FE
38
3E
3E
1E
ENDCHAR
STARTCHAR 0168
ENCODING 360
SWIDTH 630 0
DWIDTH 14 0
BBX 12 19 1 0
BITMAP
1CC0
3F80
3780
0000
E0F0
E0F0
E0F0
E0F0
E0F0
E0F0
E0F0
E0F0
E0F0
E0F0
E0F0
F1E0
7FE0
3FC0
1F00
ENDCHAR
STARTCHAR 0169
ENCODING 361
SWIDTH 540 0
DWIDTH 12 0
BBX 10 14 1 0
BITMAP
3980
7F80
6700
0000
0000
E1C0
E1C0
E1C0
E1C0
E1C0
E3C0
FFC0
7F80
3E00
ENDCHAR
STARTCHAR 016A
ENCODING 362
SWIDTH 630 0
DWIDTH 14 0
BBX 12 18 1 0
BITMAP
3F80
3F80
0000
E0F0
E0F0
E0F0
E0F0
E0F0
E0F0
E0F0
E0F0
E0F0
E0F0
E0F0
F1E0
7FE0
3FC0
1F00
ENDCHAR
STARTCHAR 016B
ENCODING 363
SWIDTH 540 0
DWIDTH 12 0
BBX 10 13 1 0
BITMAP
7F00
7F00
0000
0000
E1C0
E1C0
E1C0
E1C0
E1C0
E3C0
FFC0
7F80
3E00
ENDCHAR
STARTCHAR 016C
ENCODING 364
SWIDTH 630 0
DWIDTH 14 0
BBX 12 19 1 0
BITMAP
3180
1F80
0F00
0000
E0F0
E0F0
E0F0
E0F0
E0F0
E0F0
E0F0
E0F0
E0F0
E0F0
E0F0
F1E0
7FE0
3FC0
1F00
ENDCHAR
STARTCHAR 016D
ENCODING 365
SWIDTH 540 0
DWIDTH 12 0
BBX 10 14 1 0
BITMAP
2100
7380
7F00
1E00
0000
E1C0
E1C0
E1C0
E1C0
E1C0
E3C0
FFC0
7F80
3E00
ENDCHAR
STARTCHAR 016E
ENCODING 366
SWIDTH 630 0
DWIDTH 14 0
BBX 12 20 1 0
BITMAP
0E00
1B00
1900
0F00
0000
E0F0
E0F0
E0F0
E0F0
E0F0
E0F0
E0F0
E0F0
E0F0
E0F0
E0F0
F1E0
7FE0
3FC0
1F00
ENDCHAR
STARTCHAR 016F
ENCODING 367
SWIDTH 540 0
DWIDTH 12 0
BBX 10 15 1 0
BITMAP
1E00
3F00
3300
3F00
1E00
0000
E1C0
E1C0
E1C0
E1C0
E1C0
E3C0
FFC0
7F80
3E00
ENDCHAR
STARTCHAR 0170
ENCODING 368
SWIDTH 630 0
DWIDTH 14 0
BBX 12 19 1 0
BITMAP
0CC0
3B80
3300
0000
E0F0
E0F0
E0F0
E0F0
E0F0
E0F0
E0F0
E0F0
E0F0
E0F0
E0F0
F1E0
7FE0
3FC0
1F00
ENDCHAR
STARTCHAR 0171
ENCODING 369
SWIDTH 540 0
DWIDTH 12 0
BBX 10 15 1 0
BITMAP
0900
1B80
3B00
6600
0000
0000
E1C0
E1C0
E1C0
E1C0
E1C0
E3C0
FFC0
7F80
3E00
ENDCHAR
STARTCHAR 0172
ENCODING 370
SWIDTH 630 0
DWIDTH 14 0
BBX 12 20 1 -5
BITMAP
E0F0
E0F0
E0F0
E0F0
E0F0
E0F0
E0F0
E0F0
E0F0
E0F0
E0F0
F1E0
7FE0
3FC0
1F80
0400
0C00
0C00
0F00
0700
ENDCHAR
STARTCHAR 0173
ENCODING 371
SWIDTH 540 0
DWIDTH 12 0
BBX 10 14 1 -5
BITMAP
E1C0
E1C0
E1C0
E1C0
E1C0
E3C0
FFC0
7F80
3F00
0800
1800
1800
1E00
1E00
ENDCHAR
STARTCHAR 0174
ENCODING 372
SWIDTH 900 0
DWIDTH 20 0
BBX 19 20 0 0
BITMAP
006000
01F000
03BC00
010800
000000
F0E1E0
70E1E0
70F1E0
78F1C0
79F1C0
79F1C0
39FBC0
39BBC0
3BBB80
3F9B80
1F9F80
1F1F80
1F1F00
1F0F00
1F0F00
ENDCHAR
STARTCHAR 0175
ENCODING 373
SWIDTH 720 0
DWIDTH 16 0
BBX 16 14 0 0
BITMAP
0180
03C0
0FF0
0420
0000
E18F
F3CF
73CE
73CE
77FE
3E7C
3E7C
3C7C
1C38
ENDCHAR
STARTCHAR 0176
ENCODING 374
SWIDTH 585 0
DWIDTH 13 0
BBX 13 20 0 0
BITMAP
0600
0F80
3DC0
1080
0000
F078
F0F0
78F0
79E0
3DE0
1FC0
1FC0
0F80
0F80
0700
0700
0700
0700
0700
0700
ENDCHAR
STARTCHAR 0177
ENCODING 375
SWIDTH 495 0
DWIDTH 11 0
BBX 11 19 0 -5
BITMAP
0400
1F00
3B80
3180
0000
E0E0
71E0
71C0
79C0
3B80
3B80
1F00
1F00
1E00
0E00
1E00
1C00
3C00
3800
ENDCHAR
STARTCHAR 0178
ENCODING 376
SWIDTH 585 0
DWIDTH 13 0
BBX 13 19 0 0
BITMAP
19C0
3DC0
19C0
0000
F078
F0F0
78F0
79E0
3DE0
1FC0
1FC0
0F80
0F80
0700
0700
0700
0700
0700
0700
ENDCHAR
STARTCHAR 0179
ENCODING 377
SWIDTH 630 0
DWIDTH 14 0
BBX 13 20 0 0
BITMAP
0080
01C0
0780
0600
0000
7FF8
7FF0
7FF0
01E0
03C0
03C0
0780
0780
0F00
1E00
1E00
3C00
3FF8
7FF8
FFF8
ENDCHAR
STARTCHAR 017A
ENCODING 378
SWIDTH 450 0
DWIDTH 10 0
BBX 9 15 0 0
BITMAP
0200
0700
0F00
1C00
0000
0000
7F80
7F80
0F00
0E00
1E00
3C00
3800
7F80
FF80
ENDCHAR
STARTCHAR 017B
ENCODING 379
SWIDTH 630 0
DWIDTH 14 0
BBX 13 19 0 0
BITMAP
0700
0700
0700
0000
7FF8
7FF0
7FF0
01E0
03C0
03C0
0780
0780
0F00
1E00
1E00
3C00
3FF8
7FF8
FFF8
ENDCHAR
STARTCHAR 017C
ENCODING 380
SWIDTH 450 0
DWIDTH 10 0
BBX 9 14 0 0
BITMAP
0C00
1C00
1C00
0000
0000
7F80
7F80
0F00
0E00
1E00
3C00
3800
7F80
FF80
ENDCHAR
STARTCHAR 017D
ENCODING 381
SWIDTH 630 0
DWIDTH 14 0
BBX 13 19 0 0
BITMAP
08C0
0F80
0700
0000
7FF8
7FF0
7FF0
01E0
03C0
03C0
0780
0780
0F00
1E00
1E00
3C00
3FF8
7FF8
FFF8
ENDCHAR
STARTCHAR 017E
ENCODING 382
SWIDTH 450 0
DWIDTH 10 0
BBX 9 15 0 0
BITMAP
2100
7380
3F00
1C00
0000
0000
7F80
7F80
0F00
0E00
1E00
3C00
3800
7F80
FF80
ENDCHAR
STARTCHAR 018F
ENCODING 399
SWIDTH 675 0
DWIDTH 15 0
BBX 14 15 0 0
BITMAP
0FC0
3FF0
7FF8
3878
103C
001C
001C
FFFC
FFFC
701C
701C
783C
3FF8
1FF0
07C0
ENDCHAR
STARTCHAR 0192
ENCODING 402
SWIDTH 360 0
DWIDTH 8 0
BBX 12 21 -3 -5
BITMAP
00F0
01F0
03E0
0380
0780
0780
0700
1FC0
1FC0
1FC0
0700
0F00
0F00
0E00
0E00
0E00
0E00
1E00
7E00
7C00
F800
ENDCHAR
STARTCHAR 01A0
ENCODING 416
SWIDTH 720 0
DWIDTH 16 0
BBX 17 16 0 0
BITMAP
000380
07E180
1FFB80
3FFF00
3C3C00
781E00
700E00
700E00
F00E00
700E00
700E00
781E00
3C3C00
3FFC00
1FF800
07E000
ENDCHAR
STARTCHAR 01A1
ENCODING 417
SWIDTH 495 0
DWIDTH 11 0
BBX 12 11 0 0
BITMAP
0030
0030
1F30
3FF0
7FC0
71C0
F1E0
71E0
7FC0
3F80
1F00
ENDCHAR
STARTCHAR 01AF
ENCODING 431
SWIDTH 765 0
DWIDTH 17 0
BBX 16 17 1 0
BITMAP
0003
0003
E0FF
E0FE
E0F0
E0F0
E0F0
E0F0
E0F0
E0F0
E0F0
E0F0
E0F0
F1E0
7FE0
3FC0
1F00
ENDCHAR
STARTCHAR 01B0
ENCODING 432
SWIDTH 675 0
DWIDTH 15 0
BBX 14 11 1 0
BITMAP
000C
000C
E1FC
E1F8
E1C0
E1C0
E1C0
E3C0
FFC0
7F80
3E00
ENDCHAR
STARTCHAR 01C4
ENCODING 452
SWIDTH 1215 0
DWIDTH 27 0
BBX 25 21 1 0
BITMAP
00008400
0001CE00
0000FC00
00003800
00000000
00000000
FE07FF80
FF87FF80
FFC7FF00
E3C01E00
E1E01E00
E0E03C00
E0E03C00
E0E07800
E0E0F000
E0E0F000
E1E1E000
E3C1E000
FFC3FF80
FF87FF80
FE07FF80
ENDCHAR
STARTCHAR 01C5
ENCODING 453
SWIDTH 1035 0
DWIDTH 23 0
BBX 22 15 1 0
BITMAP
FE0210
FF83B8
FFC1F0
E3C0E0
E1E000
E1E000
E0E7FC
E0E7F8
E0E070
E0E0F0
E1E1E0
E3E1C0
FFC3C0
FF87FC
FE07FC
ENDCHAR
STARTCHAR 01C6
ENCODING 454
SWIDTH 990 0
DWIDTH 22 0
BBX 22 16 0 0
BITMAP
00E000
00E210
00E3B8
00E1F0
00E0E0
00E040
00E000
1EE7FC
3FE7F8
7FE070
70E0F0
F0E1E0
70E1C0
7FE3C0
3FE7FC
1EE7FC
ENDCHAR
STARTCHAR 01C7
ENCODING 455
SWIDTH 900 0
DWIDTH 20 0
BBX 18 15 1 0
BITMAP
E003C0
E003C0
E003C0
E003C0
E003C0
E003C0
E003C0
E003C0
E003C0
E003C0
E003C0
E02380
FFBF80
FFBF80
FF9E00
ENDCHAR
STARTCHAR 01C8
ENCODING 456
SWIDTH 765 0
DWIDTH 17 0
BBX 15 20 1 -5
BITMAP
E00C
E01E
E01E
E00C
E000
E000
E01C
E01C
E01C
E01C
E01C
E01C
FF9C
FF9C
FF9C
001C
001C
007C
007C
00F8
ENDCHAR
STARTCHAR 01C9
ENCODING 457
SWIDTH 495 0
DWIDTH 11 0
BBX 9 21 1 -5
BITMAP
E000
E380
E380
E380
E300
E000
E000
E380
E380
E380
E380
E380
E380
E380
E380
E380
0380
0380
0F80
1F80
1F00
ENDCHAR
STARTCHAR 01CA
ENCODING 458
SWIDTH 1125 0
DWIDTH 25 0
BBX 23 15 1 0
BITMAP
F8381E
F8381E
FC381E
FC381E
EE381E
EE381E
E7381E
E7381E
E3B81E
E3B81E
E1F81E
E1F89E
E0F9FC
E0F9FC
E078F0
ENDCHAR
STARTCHAR 01CB
ENCODING 459
SWIDTH 990 0
DWIDTH 22 0
BBX 20 20 1 -5
BITMAP
F83860
F838F0
FC38F0
FC3860
EE3800
EE3800
E738F0
E738F0
E3B8F0
E3B8F0
E1F8F0
E1F8F0
E0F8F0
E0F8F0
E078F0
0000F0
0000F0
0003E0
0003E0
0003C0
ENDCHAR
STARTCHAR 01CC
ENCODING 460
SWIDTH 810 0
DWIDTH 18 0
BBX 16 20 1 -5
BITMAP
0006
000F
000F
0006
0000
0000
EF0F
FF8F
F3CF
E1CF
E1CF
E1CF
E1CF
E1CF
E1CF
000F
000F
003F
003E
003C
ENDCHAR
STARTCHAR 01CE
ENCODING 462
SWIDTH 585 0
DWIDTH 13 0
BBX 11 15 0 0
BITMAP
1080
19C0
1F80
0700
0200
0000
1EE0
3FE0
7FE0
70E0
F0E0
70E0
7FE0
3FE0
1EE0
ENDCHAR
STARTCHAR 01D0
ENCODING 464
SWIDTH 225 0
DWIDTH 5 0
BBX 7 15 -1 0
BITMAP
84
EE
7C
38
10
00
38
38
38
38
38
38
38
38
38
ENDCHAR
STARTCHAR 01D2
ENCODING 466
SWIDTH 495 0
DWIDTH 11 0
BBX 11 15 0 0
BITMAP
1080
3980
1F80
0E00
0400
0000
1F00
3F80
7FC0
71E0
F1E0
71E0
7FC0
3F80
1F00
ENDCHAR
STARTCHAR 01D4
ENCODING 468
SWIDTH 540 0
DWIDTH 12 0
BBX 10 15 1 0
BITMAP
2100
7380
3F00
0E00
0000
0000
E1C0
E1C0
E1C0
E1C0
E1C0
E3C0
FFC0
7F80
3E00
ENDCHAR
STARTCHAR 01D6
ENCODING 470
SWIDTH 540 0
DWIDTH 12 0
BBX 10 18 1 0
BITMAP
7F80
7F80
0000
0000
0000
7380
7380
3300
0000
E1C0
E1C0
E1C0
E1C0
E1C0
E3C0
FFC0
7F80
3E00
ENDCHAR
STARTCHAR 01D8
ENCODING 472
SWIDTH 540 0
DWIDTH 12 0
BBX 10 19 1 0
BITMAP
0400
0E00
1E00
1800
0000
0000
7380
7380
3300
0000
E1C0
E1C0
E1C0
E1C0
E1C0
E3C0
FFC0
7F80
3E00
ENDCHAR
STARTCHAR 01DA
ENCODING 474
SWIDTH 540 0
DWIDTH 12 0
BBX 10 19 1 0
BITMAP
2100
7380
3F00
0C00
0000
0000
7380
7380
3300
0000
E1C0
E1C0
E1C0
E1C0
E1C0
E3C0
FFC0
7F80
3E00
ENDCHAR
STARTCHAR 01DC
ENCODING 476
SWIDTH 540 0
DWIDTH 12 0
BBX 10 19 1 0
BITMAP
0800
1C00
1E00
0600
0000
0000
7380
7380
3300
0000
E1C0
E1C0
E1C0
E1C0
E1C0
E3C0
FFC0
7F80
3E00
ENDCHAR
STARTCHAR 01E6
ENCODING 486
SWIDTH 720 0
DWIDTH 16 0
BBX 15 19 0 0
BITMAP
0420
07E0
03C0
0000
07E0
1FF8
3FFC
7C3C
7810
7000
F000
F0FE
70FE
700E
781E
3C3C
3FFC
1FF8
07E0
ENDCHAR
STARTCHAR 01E7
ENCODING 487
SWIDTH 585 0
DWIDTH 13 0
BBX 11 20 0 -5
BITMAP
1080
1DC0
1F80
0700
0200
0000
1EE0
3FE0
7FE0
70E0
F0E0
70E0
7FE0
3FE0
1EE0
00E0
20E0
7FE0
7FC0
1F00
ENDCHAR
STARTCHAR 01EA
ENCODING 490
SWIDTH 720 0
DWIDTH 16 0
BBX 15 20 0 -5
BITMAP
07E0
1FF8
3FFC
3C3C
781E
700E
700E
F00E
700E
700E
781E
3C3C
3FFC
1FF8
07E0
0080
0180
0180
01E0
00E0
ENDCHAR
STARTCHAR 01EB
ENCODING 491
SWIDTH 495 0
DWIDTH 11 0
BBX 11 14 0 -5
BITMAP
1F00
3F80
7FC0
71E0
F1E0
71E0
7FC0
3F80
1F00
0300
0200
0600
07C0
0380
ENDCHAR
STARTCHAR 01FA
ENCODING 506
SWIDTH 675 0
DWIDTH 15 0
BBX 15 25 0 0
BITMAP
0080
01C0
03C0
0300
0000
0380
06C0
06C0
0780
0000
0780
07C0
07C0
0FC0
0FE0
0EE0
1CE0
1C70
3C70
3FF8
3FF8
7FF8
703C
F01C
F01E
ENDCHAR
STARTCHAR 01FB
ENCODING 507
SWIDTH 585 0
DWIDTH 13 0
BBX 11 20 0 1
BITMAP
0300
0700
0E00
0000
0000
0F00
1F80
1980
1F80
0F00
0000
1EE0
3FE0
7FE0
70E0
F0E0
70E0
7FE0
3FE0
1EE0
ENDCHAR
STARTCHAR 01FC
ENCODING 508
SWIDTH 855 0
DWIDTH 19 0
BBX 18 21 0 0
BITMAP
000200
000600
000E00
001C00
000000
000000
01FFC0
01FFC0
03FFC0
03F000
07F000
077000
0F7FC0
0E7FC0
1E7FC0
1C7000
3FF000
3FF000
787FC0
707FC0
F07FC0
ENDCHAR
STARTCHAR 01FD
ENCODING 509
SWIDTH 765 0
DWIDTH 17 0
BBX 16 15 1 0
BITMAP
0080
01C0
03C0
0780
0200
0000
FC78
FEFE
47CE
3BFF
FFFF
E780
E7CC
FFFE
7C7C
ENDCHAR
STARTCHAR 01FE
ENCODING 510
SWIDTH 720 0
DWIDTH 16 0
BBX 15 20 0 1
BITMAP
00C0
01E0
0380
0200
0000
07E2
1FFE
3FFC
3C3C
783E
706E
70CE
F18E
730E
760E
7C1E
3C3C
3FFC
7FF8
C7E0
ENDCHAR
STARTCHAR 01FF
ENCODING 511
SWIDTH 495 0
DWIDTH 11 0
BBX 11 15 0 0
BITMAP
0200
0700
0F00
1C00
0800
0000
1F60
3FC0
7FC0
73E0
F5E0
79E0
7FC0
7F80
DF00
ENDCHAR
STARTCHAR 0200
ENCODING 512
SWIDTH 675 0
DWIDTH 15 0
BBX 15 20 0 0
BITMAP
0880
1DC0
1EF0
0630
0000
0780
07C0
07C0
0FC0
0FE0
0EE0
1CE0
1C70
3C70
3FF8
3FF8
7FF8
703C
F01C
F01E
ENDCHAR
STARTCHAR 0201
ENCODING 513
SWIDTH 585 0
DWIDTH 13 0
BBX 11 15 0 0
BITMAP
2100
3380
3BC0
1CE0
0400
0000
1EE0
3FE0
7FE0
70E0
F0E0
70E0
7FE0
3FE0
1EE0
ENDCHAR
STARTCHAR 0202
ENCODING 514
SWIDTH 675 0
DWIDTH 15 0
BBX 15 19 0 0
BITMAP
0780
0FC0
0C60
0000
0780
07C0
07C0
0FC0
0FE0
0EE0
1CE0
1C70
3C70
3FF8
3FF8
7FF8
703C
F01C
F01E
ENDCHAR
STARTCHAR 0203
ENCODING 515
SWIDTH 585 0
DWIDTH 13 0
BBX 11 13 0 0
BITMAP
0F00
1FC0
39C0
0000
1EE0
3FE0
7FE0
70E0
F0E0
70E0
7FE0
3FE0
1EE0
ENDCHAR
STARTCHAR 0204
ENCODING 516
SWIDTH 540 0
DWIDTH 12 0
BBX 9 20 1 0
BITMAP
4400
EE00
F780
3180
0000
FF80
FF80
FF80
E000
E000
E000
FF80
FF80
FF80
E000
E000
E000
FF80
FF80
FF80
ENDCHAR
STARTCHAR 0205
ENCODING 517
SWIDTH 495 0
DWIDTH 11 0
BBX 10 15 0 0
BITMAP
2200
7300
7B80
1DC0
0840
0000
1F00
3F80
71C0
7FC0
FFC0
7000
7980
3FC0
1F80
ENDCHAR
STARTCHAR 0206
ENCODING 518
SWIDTH 540 0
DWIDTH 12 0
BBX 9 19 1 0
BITMAP
3C00
7E00
6300
0000
FF80
FF80
FF80
E000
E000
E000
FF80
FF80
FF80
E000
E000
E000
FF80
FF80
FF80
ENDCHAR
STARTCHAR 0207
ENCODING 519
SWIDTH 495 0
DWIDTH 11 0
BBX 10 13 0 0
BITMAP
1F00
3F80
7180
0000
1F00
3F80
71C0
7FC0
FFC0
7000
7980
3FC0
1F80
ENDCHAR
STARTCHAR 0208
ENCODING 520
SWIDTH 270 0
DWIDTH 6 0
BBX 9 20 -2 0
BITMAP
4200
E700
7780
3980
0000
1C00
1C00
1C00
1C00
1C00
1C00
1C00
1C00
1C00
1C00
1C00
1C00
1C00
1C00
1C00
ENDCHAR
STARTCHAR 0209
ENCODING 521
SWIDTH 225 0
DWIDTH 5 0
BBX 9 15 -2 0
BITMAP
4400
E600
F700
3380
1000
0000
1C00
1C00
1C00
1C00
1C00
1C00
1C00
1C00
1C00
ENDCHAR
STARTCHAR 020A
ENCODING 522
SWIDTH 270 0
DWIDTH 6 0
BBX 7 19 -1 0
BITMAP
3C
7E
C6
00
38
38
38
38
38
38
38
38
38
38
38
38
38
38
38
ENDCHAR
STARTCHAR 020B
ENCODING 523
SWIDTH 225 0
DWIDTH 5 0
BBX 8 14 -2 0
BITMAP
3C
7F
E7
43
00
1C
1C
1C
1C
1C
1C
1C
1C
1C
ENDCHAR
STARTCHAR 020C
ENCODING 524
SWIDTH 720 0
DWIDTH 16 0
BBX 15 20 0 0
BITMAP
0840
0CE0
0EF0
0738
0000
07E0
1FF8
3FFC
3C3C
781E
700E
700E
F00E
700E
700E
781E
3C3C
3FFC
1FF8
07E0
ENDCHAR
STARTCHAR 020D
ENCODING 525
SWIDTH 495 0
DWIDTH 11 0
BBX 11 15 0 0
BITMAP
2200
7380
7BC0
1DC0
0840
0000
1F00
3F80
7FC0
71E0
F1E0
71E0
7FC0
3F80
1F00
ENDCHAR
STARTCHAR 020E
ENCODING 526
SWIDTH 720 0
DWIDTH 16 0
BBX 15 19 0 0
BITMAP
03C0
07E0
0E70
0000
07E0
1FF8
3FFC
3C3C
781E
700E
700E
F00E
700E
700E
781E
3C3C
3FFC
1FF8
07E0
ENDCHAR
STARTCHAR 020F
ENCODING 527
SWIDTH 495 0
DWIDTH 11 0
BBX 11 13 0 0
BITMAP
1F00
3F80
3180
0000
1F00
3F80
7FC0
71E0
F1E0
71E0
7FC0
3F80
1F00
ENDCHAR
STARTCHAR 0210
ENCODING 528
SWIDTH 585 0
DWIDTH 13 0
BBX 11 20 1 0
BITMAP
4200
7700
7B80
18C0
0000
FF00
FF80
FFC0
E1C0
E1C0
E1C0
E3C0
FF80
FF00
EF00
E700
E780
E380
E3C0
E1E0
ENDCHAR
STARTCHAR 0211
ENCODING 529
SWIDTH 405 0
DWIDTH 9 0
BBX 9 15 0 0
BITMAP
4400
E600
F700
7B80
1000
0000
7780
7F00
7F00
7000
7000
7000
7000
7000
7000
ENDCHAR
STARTCHAR 0212
ENCODING 530
SWIDTH 585 0
DWIDTH 13 0
BBX 11 19 1 0
BITMAP
1E00
3F00
3180
0000
FF00
FF80
FFC0
E1C0
E1C0
E1C0
E3C0
FF80
FF00
EF00
E700
E780
E380
E3C0
E1E0
ENDCHAR
STARTCHAR 0213
ENCODING 531
SWIDTH 405 0
DWIDTH 9 0
BBX 9 14 0 0
BITMAP
3C00
7E00
E700
C300
0000
7780
7F00
7F00
7000
7000
7000
7000
7000
7000
ENDCHAR
STARTCHAR 0214
ENCODING 532
SWIDTH 630 0
DWIDTH 14 0
BBX 12 20 1 0
BITMAP
2100
7380
39C0
0CC0
0000
E0F0
E0F0
E0F0
E0F0
E0F0
E0F0
E0F0
E0F0
E0F0
E0F0
E0F0
F1E0
7FE0
3FC0
1F00
ENDCHAR
STARTCHAR 0215
ENCODING 533
SWIDTH 540 0
DWIDTH 12 0
BBX 10 15 1 0
BITMAP
4200
6700
7780
39C0
0000
0000
E1C0
E1C0
E1C0
E1C0
E1C0
E3C0
FFC0
7F80
3E00
ENDCHAR
STARTCHAR 0216
ENCODING 534
SWIDTH 630 0
DWIDTH 14 0
BBX 12 19 1 0
BITMAP
0F00
1F80
3180
0000
E0F0
E0F0
E0F0
E0F0
E0F0
E0F0
E0F0
E0F0
E0F0
E0F0
E0F0
F1E0
7FE0
3FC0
1F00
ENDCHAR
STARTCHAR 0217
ENCODING 535
SWIDTH 540 0
DWIDTH 12 0
BBX 10 14 1 0
BITMAP
1E00
3F00
7380
6180
0000
E1C0
E1C0
E1C0
E1C0
E1C0
E3C0
FFC0
7F80
3E00
ENDCHAR
STARTCHAR 0218
ENCODING 536
SWIDTH 540 0
DWIDTH 12 0
BBX 11 21 0 -6
BITMAP
0F80
3FE0
3FC0
7840
7800
3C00
3F00
1FC0
03E0
01E0
00E0
70E0
7FE0
FFC0
1F80
0000
0E00
0E00
0600
0200
0C00
ENDCHAR
STARTCHAR 0219
ENCODING 537
SWIDTH 450 0
DWIDTH 10 0
BBX 8 15 1 -7
BITMAP
7E
FE
E2
F8
7E
0F
CF
FE
FC
00
38
38
38
08
10
ENDCHAR
STARTCHAR 021A
ENCODING 538
SWIDTH 495 0
DWIDTH 11 0
BBX 10 21 0 -7
BITMAP
FFC0
FFC0
FFC0
0E00
0E00
0E00
0E00
0E00
0E00
0E00
0E00
0E00
0E00
0E00
0E00
0000
0E00
0E00
0E00
0400
0C00
ENDCHAR
STARTCHAR 021B
ENCODING 539
SWIDTH 360 0
DWIDTH 8 0
BBX 7 19 0 -7
BITMAP
38
38
38
38
FE
FE
FE
38
38
38
3E
3E
1E
00
1C
1C
1C
04
08
ENDCHAR
STARTCHAR 022A
ENCODING 554
SWIDTH 720 0
DWIDTH 16 0
BBX 15 22 0 0
BITMAP
0FF0
0FF0
0000
0660
0E70
0E70
0000
07E0
1FF8
3FFC
3C3C
781E
700E
700E
F00E
700E
700E
781E
3C3C
3FFC
1FF8
07E0
ENDCHAR
STARTCHAR 022B
ENCODING 555
SWIDTH 495 0
DWIDTH 11 0
BBX 11 17 0 0
BITMAP
3F80
3F80
0000
0000
3980
3BC0
3980
0000
1F00
3F80
7FC0
71E0
F1E0
71E0
7FC0
3F80
1F00
ENDCHAR
STARTCHAR 022C
ENCODING 556
SWIDTH 720 0
DWIDTH 16 0
BBX 15 24 0 0
BITMAP
07F0
07F0
0000
0000
0730
07F0
0FE0
0000
0000
07E0
1FF8
3FFC
3C3C
781E
700E
700E
F00E
700E
700E
781E
3C3C
3FFC
1FF8
07E0
ENDCHAR
STARTCHAR 022D
ENCODING 557
SWIDTH 495 0
DWIDTH 11 0
BBX 11 18 0 0
BITMAP
3F80
3F80
0000
0000
1CC0
3F80
3F80
0000
0000
1F00
3F80
7FC0
71E0
F1E0
71E0
7FC0
3F80
1F00
ENDCHAR
STARTCHAR 0230
ENCODING 560
SWIDTH 720 0
DWIDTH 16 0
BBX 15 22 0 0
BITMAP
0FF0
0FF0
0000
0180
03C0
0180
0000
07E0
1FF8
3FFC
3C3C
781E
700E
700E
F00E
700E
700E
781E
3C3C
3FFC
1FF8
07E0
ENDCHAR
STARTCHAR 0231
ENCODING 561
SWIDTH 495 0
DWIDTH 11 0
BBX 11 18 0 0
BITMAP
3F80
3F80
0000
0000
0600
0E00
0E00
0000
0000
1F00
3F80
7FC0
71E0
F1E0
71E0
7FC0
3F80
1F00
ENDCHAR
STARTCHAR 0232
ENCODING 562
SWIDTH 585 0
DWIDTH 13 0
BBX 13 18 0 0
BITMAP
1FC0
1FC0
0000
F078
F0F0
78F0
79E0
3DE0
1FC0
1FC0
0F80
0F80
0700
0700
0700
0700
0700
0700
ENDCHAR
STARTCHAR 0233
ENCODING 563
SWIDTH 495 0
DWIDTH 11 0
BBX 11 18 0 -5
BITMAP
3F80
3F80
0000
0000
E0E0
71E0
71C0
79C0
3B80
3B80
1F00
1F00
1E00
0E00
1E00
1C00
3C00
3800
ENDCHAR
STARTCHAR 0237
ENCODING 567
SWIDTH 270 0
DWIDTH 6 0
BBX 6 14 -1 -5
BITMAP
3C
3C
3C
3C
3C
3C
3C
3C
3C
3C
3C
F8
F8
F0
ENDCHAR
STARTCHAR 0259
ENCODING 601
SWIDTH 495 0
DWIDTH 11 0
BBX 10 9 1 0
BITMAP
7E00
FF00
6780
0380
FFC0
FFC0
F380
7F80
3E00
ENDCHAR
STARTCHAR 02BC
ENCODING 700
SWIDTH 450 0
DWIDTH 10 0
BBX 3 6 1 9
BITMAP
E0
E0
E0
E0
C0
40
ENDCHAR
STARTCHAR 02C6
ENCODING 710
SWIDTH 495 0
DWIDTH 11 0
BBX 7 4 2 11
BITMAP
10
78
FE
C6
ENDCHAR
STARTCHAR 02C7
ENCODING 711
SWIDTH 495 0
DWIDTH 11 0
BBX 8 4 1 11
BITMAP
42
F7
3E
1C
ENDCHAR
STARTCHAR 02C9
ENCODING 713
SWIDTH 450 0
DWIDTH 10 0
BBX 8 2 1 11
BITMAP
FF
FF
ENDCHAR
STARTCHAR 02D8
ENCODING 728
SWIDTH 495 0
DWIDTH 11 0
BBX 7 4 2 11
BITMAP
C6
C6
FE
78
ENDCHAR
STARTCHAR 02D9
ENCODING 729
SWIDTH 270 0
DWIDTH 6 0
BBX 4 3 1 11
BITMAP
60
F0
60
ENDCHAR
STARTCHAR 02DA
ENCODING 730
SWIDTH 405 0
DWIDTH 9 0
BBX 6 5 1 11
BITMAP
78
7C
CC
7C
78
ENDCHAR
STARTCHAR 02DB
ENCODING 731
SWIDTH 360 0
DWIDTH 8 0
BBX 5 5 1 -5
BITMAP
60
40
C0
F8
70
ENDCHAR
STARTCHAR 02DC
ENCODING 732
SWIDTH 495 0
DWIDTH 11 0
BBX 8 3 1 11
BITMAP
39
7F
CE
ENDCHAR
STARTCHAR 02DD
ENCODING 733
SWIDTH 495 0
DWIDTH 11 0
BBX 8 5 2 10
BITMAP
22
37
7E
CC
08
ENDCHAR
STARTCHAR 0300
ENCODING 768
SWIDTH 0 0
DWIDTH 0 0
BBX 4 4 2 11
BITMAP
80
C0
F0
30
ENDCHAR
STARTCHAR 0301
ENCODING 769
SWIDTH 0 0
DWIDTH 0 0
BBX 5 4 3 11
BITMAP
10
38
F0
C0
ENDCHAR
STARTCHAR 0302
ENCODING 770
SWIDTH 0 0
DWIDTH 0 0
BBX 7 4 2 11
BITMAP
10
7C
EE
C6
ENDCHAR
STARTCHAR 0303
ENCODING 771
SWIDTH 0 0
DWIDTH 0 0
BBX 8 3 2 11
BITMAP
73
FE
DE
ENDCHAR
STARTCHAR 0304
ENCODING 772
SWIDTH 0 0
DWIDTH 0 0
BBX 7 2 2 11
BITMAP
FE
FE
ENDCHAR
STARTCHAR 0306
ENCODING 774
SWIDTH 0 0
DWIDTH 0 0
BBX 7 4 2 11
BITMAP
C6
C6
FE
3C
ENDCHAR
STARTCHAR 0307
ENCODING 775
SWIDTH 0 0
DWIDTH 0 0
BBX 3 3 2 11
BITMAP
C0
E0
E0
ENDCHAR
STARTCHAR 0308
ENCODING 776
SWIDTH 0 0
DWIDTH 0 0
BBX 8 3 1 11
BITMAP
67
F7
67
ENDCHAR
STARTCHAR 0309
ENCODING 777
SWIDTH 0 0
DWIDTH 0 0
BBX 5 5 4 10
BITMAP
F0
F8
18
38
70
ENDCHAR
STARTCHAR 030A
ENCODING 778
SWIDTH 0 0
DWIDTH 0 0
BBX 5 5 2 11
BITMAP
70
F8
98
F8
70
ENDCHAR
STARTCHAR 030B
ENCODING 779
SWIDTH 0 0
DWIDTH 0 0
BBX 8 4 2 10
BITMAP
22
37
76
EC
ENDCHAR
STARTCHAR 030C
ENCODING 780
SWIDTH 0 0
DWIDTH 0 0
BBX 7 4 2 11
BITMAP
86
EE
7C
38
ENDCHAR
STARTCHAR 030F
ENCODING 783
SWIDTH 0 0
DWIDTH 0 0
BBX 9 4 2 11
BITMAP
8400
CE00
F700
3380
ENDCHAR
STARTCHAR 0311
ENCODING 785
SWIDTH 0 0
DWIDTH 0 0
BBX 7 4 2 10
BITMAP
78
FE
C6
C6
ENDCHAR
STARTCHAR 0312
ENCODING 786
SWIDTH 0 0
DWIDTH 0 0
BBX 3 5 1 10
BITMAP
60
40
E0
E0
40
ENDCHAR
STARTCHAR 031B
ENCODING 795
SWIDTH 0 0
DWIDTH 0 0
BBX 5 4 4 10
BITMAP
38
38
F0
E0
ENDCHAR
STARTCHAR 0323
ENCODING 803
SWIDTH 0 0
DWIDTH 0 0
BBX 3 3 2 -3
BITMAP
40
E0
60
ENDCHAR
STARTCHAR 0324
ENCODING 804
SWIDTH 0 0
DWIDTH 0 0
BBX 7 3 2 -4
BITMAP
CE
EE
CE
ENDCHAR
STARTCHAR 0326
ENCODING 806
SWIDTH 0 0
DWIDTH 0 0
BBX 4 5 1 -7
BITMAP
60
F0
70
20
60
ENDCHAR
STARTCHAR 0327
ENCODING 807
SWIDTH 0 0
DWIDTH 0 0
BBX 5 5 2 -5
BITMAP
20
70
18
F8
F0
ENDCHAR
STARTCHAR 0328
ENCODING 808
SWIDTH 0 0
DWIDTH 0 0
BBX 4 5 2 -5
BITMAP
40
C0
80
F0
E0
ENDCHAR
STARTCHAR 032E
ENCODING 814
SWIDTH 0 0
DWIDTH 0 0
BBX 8 4 1 -4
BITMAP
22
E3
7F
3E
ENDCHAR
STARTCHAR 0331
ENCODING 817
SWIDTH 0 0
DWIDTH 0 0
BBX 7 2 2 -3
BITMAP
FE
FE
ENDCHAR
STARTCHAR 1E80
ENCODING 7808
SWIDTH 900 0
DWIDTH 20 0
BBX 19 20 0 0
BITMAP
008000
01C000
01E000
006000
000000
F0E1E0
70E1E0
70F1E0
78F1C0
79F1C0
79F1C0
39FBC0
39BBC0
3BBB80
3F9B80
1F9F80
1F1F80
1F1F00
1F0F00
1F0F00
ENDCHAR
STARTCHAR 1E81
ENCODING 7809
SWIDTH 720 0
DWIDTH 16 0
BBX 16 15 0 0
BITMAP
0100
0380
03C0
00E0
0000
0000
E18F
F3CF
73CE
73CE
77FE
3E7C
3E7C
3C7C
1C38
ENDCHAR
STARTCHAR 1E82
ENCODING 7810
SWIDTH 900 0
DWIDTH 20 0
BBX 19 20 0 0
BITMAP
001000
003800
007000
00C000
000000
F0E1E0
70E1E0
70F1E0
78F1C0
79F1C0
79F1C0
39FBC0
39BBC0
3BBB80
3F9B80
1F9F80
1F1F80
1F1F00
1F0F00
1F0F00
ENDCHAR
STARTCHAR 1E83
ENCODING 7811
SWIDTH 720 0
DWIDTH 16 0
BBX 16 15 0 0
BITMAP
0080
01C0
03C0
0300
0200
0000
E18F
F3CF
73CE
73CE
77FE
3E7C
3E7C
3C7C
1C38
ENDCHAR
STARTCHAR 1E84
ENCODING 7812
SWIDTH 900 0
DWIDTH 20 0
BBX 19 19 0 0
BITMAP
039800
03BC00
039800
000000
F0E1E0
70E1E0
70F1E0
78F1C0
79F1C0
79F1C0
39FBC0
39BBC0
3BBB80
3F9B80
1F9F80
1F1F80
1F1F00
1F0F00
1F0F00
ENDCHAR
STARTCHAR 1E85
ENCODING 7813
SWIDTH 720 0
DWIDTH 16 0
BBX 16 13 0 0
BITMAP
0670
0E70
0660
0000
E18F
F3CF
73CE
73CE
77FE
3E7C
3E7C
3C7C
1C38
ENDCHAR
STARTCHAR 1E9E
ENCODING 7838
SWIDTH 630 0
DWIDTH 14 0
BBX 12 15 1 0
BITMAP
1FC0
7FE0
7FE0
F1E0
E3C0
E780
E700
E7E0
E7F0
E0F0
E070
E070
EFF0
EFE0
EFC0
ENDCHAR
STARTCHAR 1EA0
ENCODING 7840
SWIDTH 675 0
DWIDTH 15 0
BBX 15 19 0 -4
BITMAP
0780
07C0
07C0
0FC0
0FE0
0EE0
1CE0
1C70
3C70
3FF8
3FF8
7FF8
703C
F01C
F01E
0000
0300
0380
0100
ENDCHAR
STARTCHAR 1EA1
ENCODING 7841
SWIDTH 585 0
DWIDTH 13 0
BBX 11 12 0 -3
BITMAP
1EE0
3FE0
7FE0
70E0
F0E0
70E0
7FE0
3FE0
1EE0
0600
0600
0600
ENDCHAR
STARTCHAR 1EA2
ENCODING 7842
SWIDTH 675 0
DWIDTH 15 0
BBX 15 20 0 0
BITMAP
0780
00C0
01C0
0380
0000
0780
07C0
07C0
0FC0
0FE0
0EE0
1CE0
1C70
3C70
3FF8
3FF8
7FF8
703C
F01C
F01E
ENDCHAR
STARTCHAR 1EA3
ENCODING 7843
SWIDTH 585 0
DWIDTH 13 0
BBX 11 15 0 0
BITMAP
0E00
0F00
0180
0300
0700
0000
1EE0
3FE0
7FE0
70E0
F0E0
70E0
7FE0
3FE0
1EE0
ENDCHAR
STARTCHAR 1EA4
ENCODING 7844
SWIDTH 675 0
DWIDTH 15 0
BBX 15 23 0 0
BITMAP
0008
001C
0078
0320
07C0
0EE0
0C60
0000
0780
07C0
07C0
0FC0
0FE0
0EE0
1CE0
1C70
3C70
3FF8
3FF8
7FF8
703C
F01C
F01E
ENDCHAR
STARTCHAR 1EA5
ENCODING 7845
SWIDTH 585 0
DWIDTH 13 0
BBX 11 19 0 1
BITMAP
0300
0700
0E00
0800
0000
0600
0F00
1F80
19C0
0000
1EE0
3FE0
7FE0
70E0
F0E0
70E0
7FE0
3FE0
1EE0
ENDCHAR
STARTCHAR 1EA6
ENCODING 7846
SWIDTH 675 0
DWIDTH 15 0
BBX 15 23 0 0
BITMAP
0040
00E0
0070
0310
07C0
0EE0
0C60
0000
0780
07C0
07C0
0FC0
0FE0
0EE0
1CE0
1C70
3C70
3FF8
3FF8
7FF8
703C
F01C
F01E
ENDCHAR
STARTCHAR 1EA7
ENCODING 7847
SWIDTH 585 0
DWIDTH 13 0
BBX 11 20 0 0
BITMAP
0400
0E00
0F00
0380
0100
0000
0600
0F00
1F80
19C0
0000
1EE0
3FE0
7FE0
70E0
F0E0
70E0
7FE0
3FE0
1EE0
ENDCHAR
STARTCHAR 1EA8
ENCODING 7848
SWIDTH 675 0
DWIDTH 15 0
BBX 15 25 0 0
BITMAP
00E0
01F0
0030
0030
0070
0340
07C0
0EE0
0C60
0000
0780
07C0
07C0
0FC0
0FE0
0EE0
1CE0
1C70
3C70
3FF8
3FF8
7FF8
703C
F01C
F01E
ENDCHAR
STARTCHAR 1EA9
ENCODING 7849
SWIDTH 585 0
DWIDTH 13 0
BBX 11 20 0 0
BITMAP
0E00
0F00
0180
0300
0700
0000
0200
0F00
1F80
19C0
0000
1EE0
3FE0
7FE0
70E0
F0E0
70E0
7FE0
3FE0
1EE0
ENDCHAR
STARTCHAR 1EAA
ENCODING 7850
SWIDTH 675 0
DWIDTH 15 0
BBX 15 24 0 0
BITMAP
0720
0FE0
1FC0
0000
0100
0780
0FE0
0C60
0000
0780
07C0
07C0
0FC0
0FE0
0EE0
1CE0
1C70
3C70
3FF8
3FF8
7FF8
703C
F01C
F01E
ENDCHAR
STARTCHAR 1EAB
ENCODING 7851
SWIDTH 585 0
DWIDTH 13 0
BBX 11 19 0 0
BITMAP
1CC0
1FC0
3380
0000
0000
0600
0F00
1FC0
19C0
0000
1EE0
3FE0
7FE0
70E0
F0E0
70E0
7FE0
3FE0
1EE0
ENDCHAR
STARTCHAR 1EAC
ENCODING 7852
SWIDTH 675 0
DWIDTH 15 0
BBX 15 24 0 -4
BITMAP
0300
07C0
1EE0
0840
0000
0780
07C0
07C0
0FC0
0FE0
0EE0
1CE0
1C70
3C70
3FF8
3FF8
7FF8
703C
F01C
F01E
0000
0300
0380
0100
ENDCHAR
STARTCHAR 1EAD
ENCODING 7853
SWIDTH 585 0
DWIDTH 13 0
BBX 11 17 0 -3
BITMAP
0600
0F00
1F80
19C0
0000
1EE0
3FE0
7FE0
70E0
F0E0
70E0
7FE0
3FE0
1EE0
0600
0600
0600
ENDCHAR
STARTCHAR 1EAE
ENCODING 7854
SWIDTH 675 0
DWIDTH 15 0
BBX 15 24 0 0
BITMAP
00C0
01C0
0380
0200
0000
0C60
0FC0
0780
0000
0780
07C0
07C0
0FC0
0FE0
0EE0
1CE0
1C70
3C70
3FF8
3FF8
7FF8
703C
F01C
F01E
ENDCHAR
STARTCHAR 1EAF
ENCODING 7855
SWIDTH 585 0
DWIDTH 13 0
BBX 11 19 0 1
BITMAP
0300
0780
0E00
0800
0000
1080
39C0
1F80
0F00
0000
1EE0
3FE0
7FE0
70E0
F0E0
70E0
7FE0
3FE0
1EE0
ENDCHAR
STARTCHAR 1EB0
ENCODING 7856
SWIDTH 675 0
DWIDTH 15 0
BBX 15 24 0 0
BITMAP
0400
0F00
0780
0100
0000
0C60
0FC0
0780
0000
0780
07C0
07C0
0FC0
0FE0
0EE0
1CE0
1C70
3C70
3FF8
3FF8
7FF8
703C
F01C
F01E
ENDCHAR
STARTCHAR 1EB1
ENCODING 7857
SWIDTH 585 0
DWIDTH 13 0
BBX 11 19 0 1
BITMAP
0C00
0F00
0780
0100
0000
1080
39C0
1F80
0F00
0000
1EE0
3FE0
7FE0
70E0
F0E0
70E0
7FE0
3FE0
1EE0
ENDCHAR
STARTCHAR 1EB2
ENCODING 7858
SWIDTH 675 0
DWIDTH 15 0
BBX 15 24 0 0
BITMAP
07C0
00C0
01C0
0100
0000
0C60
0FC0
0780
0000
0780
07C0
07C0
0FC0
0FE0
0EE0
1CE0
1C70
3C70
3FF8
3FF8
7FF8
703C
F01C
F01E
ENDCHAR
STARTCHAR 1EB3
ENCODING 7859
SWIDTH 585 0
DWIDTH 13 0
BBX 11 20 0 0
BITMAP
0F00
0F00
0180
0300
0600
0000
30C0
39C0
1F80
0F00
0000
1EE0
3FE0
7FE0
70E0
F0E0
70E0
7FE0
3FE0
1EE0
ENDCHAR
STARTCHAR 1EB4
ENCODING 7860
SWIDTH 675 0
DWIDTH 15 0
BBX 15 23 0 0
BITMAP
0F60
0FE0
19C0
0000
0C60
0FC0
0780
0000
0780
07C0
07C0
0FC0
0FE0
0EE0
1CE0
1C70
3C70
3FF8
3FF8
7FF8
703C
F01C
F01E
ENDCHAR
STARTCHAR 1EB5
ENCODING 7861
SWIDTH 585 0
DWIDTH 13 0
BBX 11 18 0 0
BITMAP
1EC0
1FC0
3380
0000
0000
38C0
1FC0
0F00
0000
1EE0
3FE0
7FE0
70E0
F0E0
70E0
7FE0
3FE0
1EE0
ENDCHAR
STARTCHAR 1EB6
ENCODING 7862
SWIDTH 675 0
DWIDTH 15 0
BBX 15 23 0 -4
BITMAP
0C60
0FC0
0780
0000
0780
07C0
07C0
0FC0
0FE0
0EE0
1CE0
1C70
3C70
3FF8
3FF8
7FF8
703C
F01C
F01E
0000
0300
0380
0100
ENDCHAR
STARTCHAR 1EB7
ENCODING 7863
SWIDTH 585 0
DWIDTH 13 0
BBX 11 17 0 -3
BITMAP
1080
39C0
1F80
0F00
0000
1EE0
3FE0
7FE0
70E0
F0E0
70E0
7FE0
3FE0
1EE0
0600
0600
0600
ENDCHAR
STARTCHAR 1EB8
ENCODING 7864
SWIDTH 540 0
DWIDTH 12 0
BBX 9 19 1 -4
BITMAP
FF80
FF80
FF80
E000
E000
E000
FF80
FF80
FF80
E000
E000
E000
FF80
FF80
FF80
0000
1800
1800
0800
ENDCHAR
STARTCHAR 1EB9
ENCODING 7865
SWIDTH 495 0
DWIDTH 11 0
BBX 10 12 0 -3
BITMAP
1F00
3F80
71C0
7FC0
FFC0
7000
7980
3FC0
1F80
0400
0E00
0C00
ENDCHAR
STARTCHAR 1EBA
ENCODING 7866
SWIDTH 540 0
DWIDTH 12 0
BBX 9 20 1 0
BITMAP
3E00
0600
0E00
1C00
0000
FF80
FF80
FF80
E000
E000
E000
FF80
FF80
FF80
E000
E000
E000
FF80
FF80
FF80
ENDCHAR
STARTCHAR 1EBB
ENCODING 7867
SWIDTH 495 0
DWIDTH 11 0
BBX 10 15 0 0
BITMAP
0C00
1F00
0300
0300
0E00
0400
1F00
3F80
71C0
7FC0
FFC0
7000
7980
3FC0
1F80
ENDCHAR
STARTCHAR 1EBC
ENCODING 7868
SWIDTH 540 0
DWIDTH 12 0
BBX 9 19 1 0
BITMAP
7B00
7F00
CE00
0000
FF80
FF80
FF80
E000
E000
E000
FF80
FF80
FF80
E000
E000
E000
FF80
FF80
FF80
ENDCHAR
STARTCHAR 1EBD
ENCODING 7869
SWIDTH 495 0
DWIDTH 11 0
BBX 10 14 0 0
BITMAP
1CC0
3F80
3F00
0000
0000
1F00
3F80
71C0
7FC0
FFC0
7000
7980
3FC0
1F80
ENDCHAR
STARTCHAR 1EBE
ENCODING 7870
SWIDTH 540 0
DWIDTH 12 0
BBX 11 23 1 0
BITMAP
0060
00E0
03C0
1900
3E00
7700
6300
0000
FF80
FF80
FF80
E000
E000
E000
FF80
FF80
FF80
E000
E000
E000
FF80
FF80
FF80
ENDCHAR
STARTCHAR 1EBF
ENCODING 7871
SWIDTH 495 0
DWIDTH 11 0
BBX 10 20 0 0
BITMAP
0200
0700
0F00
1C00
0000
0000
0400
1E00
3F80
3180
0000
1F00
3F80
71C0
7FC0
FFC0
7000
7980
3FC0
1F80
ENDCHAR
STARTCHAR 1EC0
ENCODING 7872
SWIDTH 540 0
DWIDTH 12 0
BBX 9 23 1 0
BITMAP
0200
0700
0380
1880
3E00
7700
6300
0000
FF80
FF80
FF80
E000
E000
E000
FF80
FF80
FF80
E000
E000
E000
FF80
FF80
FF80
ENDCHAR
STARTCHAR 1EC1
ENCODING 7873
SWIDTH 495 0
DWIDTH 11 0
BBX 10 20 0 0
BITMAP
0800
0C00
1E00
0700
0000
0000
0400
1E00
3F80
3180
0000
1F00
3F80
71C0
7FC0
FFC0
7000
7980
3FC0
1F80
ENDCHAR
STARTCHAR 1EC2
ENCODING 7874
SWIDTH 540 0
DWIDTH 12 0
BBX 9 25 1 0
BITMAP
0700
0F80
0180
0180
0380
1A00
3E00
7700
6300
0000
FF80
FF80
FF80
E000
E000
E000
FF80
FF80
FF80
E000
E000
E000
FF80
FF80
FF80
ENDCHAR
STARTCHAR 1EC3
ENCODING 7875
SWIDTH 495 0
DWIDTH 11 0
BBX 10 20 0 0
BITMAP
0C00
1F00
0300
0300
0E00
0000
0400
0E00
3F80
3180
0000
1F00
3F80
71C0
7FC0
FFC0
7000
7980
3FC0
1F80
ENDCHAR
STARTCHAR 1EC4
ENCODING 7876
SWIDTH 540 0
DWIDTH 12 0
BBX 9 24 1 0
BITMAP
3900
7F00
FE00
0000
0800
3C00
7F00
6300
0000
FF80
FF80
FF80
E000
E000
E000
FF80
FF80
FF80
E000
E000
E000
FF80
FF80
FF80
ENDCHAR
STARTCHAR 1EC5
ENCODING 7877
SWIDTH 495 0
DWIDTH 11 0
BBX 10 19 0 0
BITMAP
1CC0
3F80
3700
0000
0000
0400
1E00
3F80
3180
0000
1F00
3F80
71C0
7FC0
FFC0
7000
7980
3FC0
1F80
ENDCHAR
STARTCHAR 1EC6
ENCODING 7878
SWIDTH 540 0
DWIDTH 12 0
BBX 9 24 1 -4
BITMAP
1800
3E00
7700
6300
0000
FF80
FF80
FF80
E000
E000
E000
FF80
FF80
FF80
E000
E000
E000
FF80
FF80
FF80
0000
1800
1800
0800
ENDCHAR
STARTCHAR 1EC7
ENCODING 7879
SWIDTH 495 0
DWIDTH 11 0
BBX 10 17 0 -3
BITMAP
0400
1E00
3F80
3180
0000
1F00
3F80
71C0
7FC0
FFC0
7000
7980
3FC0
1F80
0400
0E00
0C00
ENDCHAR
STARTCHAR 1EC8
ENCODING 7880
SWIDTH 270 0
DWIDTH 6 0
BBX 5 20 0 0
BITMAP
F8
18
18
30
00
70
70
70
70
70
70
70
70
70
70
70
70
70
70
70
ENDCHAR
STARTCHAR 1EC9
ENCODING 7881
SWIDTH 225 0
DWIDTH 5 0
BBX 5 15 0 0
BITMAP
F0
F8
18
30
70
00
70
70
70
70
70
70
70
70
70
ENDCHAR
STARTCHAR 1ECA
ENCODING 7882
SWIDTH 270 0
DWIDTH 6 0
BBX 3 19 1 -4
BITMAP
E0
E0
E0
E0
E0
E0
E0
E0
E0
E0
E0
E0
E0
E0
E0
00
60
E0
40
ENDCHAR
STARTCHAR 1ECB
ENCODING 7883
SWIDTH 270 0
DWIDTH 6 0
BBX 4 19 1 -4
BITMAP
E0
F0
F0
60
00
00
E0
E0
E0
E0
E0
E0
E0
E0
E0
00
60
E0
40
ENDCHAR
STARTCHAR 1ECC
ENCODING 7884
SWIDTH 720 0
DWIDTH 16 0
BBX 15 21 0 -6
BITMAP
07E0
1FF8
3FFC
3C3C
781E
700E
700E
F00E
700E
700E
781E
3C3C
3FFC
1FF8
07E0
0000
0000
0000
0000
0180
0180
ENDCHAR
STARTCHAR 1ECD
ENCODING 7885
SWIDTH 495 0
DWIDTH 11 0
BBX 11 14 0 -5
BITMAP
1F00
3F80
7FC0
71E0
F1E0
71E0
7FC0
3F80
1F00
0000
0000
0E00
0E00
0400
ENDCHAR
STARTCHAR 1ECE
ENCODING 7886
SWIDTH 720 0
DWIDTH 16 0
BBX 15 20 0 0
BITMAP
07C0
06C0
00C0
01C0
0000
07E0
1FF8
3FFC
3C3C
781E
700E
700E
F00E
700E
700E
781E
3C3C
3FFC
1FF8
07E0
ENDCHAR
STARTCHAR 1ECF
ENCODING 7887
SWIDTH 495 0
DWIDTH 11 0
BBX 11 15 0 0
BITMAP
0E00
1F00
0300
0300
0E00
0400
1F00
3F80
7FC0
71E0
F1E0
71E0
7FC0
3F80
1F00
ENDCHAR
STARTCHAR 1ED0
ENCODING 7888
SWIDTH 720 0
DWIDTH 16 0
BBX 15 23 0 0
BITMAP
0004
001E
003C
01B0
03C0
07E0
0660
0000
07E0
1FF8
3FFC
3C3C
781E
700E
700E
F00E
700E
700E
781E
3C3C
3FFC
1FF8
07E0
ENDCHAR
STARTCHAR 1ED1
ENCODING 7889
SWIDTH 495 0
DWIDTH 11 0
BBX 11 20 0 0
BITMAP
0200
0700
0F00
1C00
0000
0000
0400
0E00
3F80
3180
0000
1F00
3F80
7FC0
71E0
F1E0
71E0
7FC0
3F80
1F00
ENDCHAR
STARTCHAR 1ED2
ENCODING 7890
SWIDTH 720 0
DWIDTH 16 0
BBX 15 22 0 1
BITMAP
0070
0078
0198
03C0
07E0
0670
0000
07E0
1FF8
3FFC
3C3C
781E
700E
700E
F00E
700E
700E
781E
3C3C
3FFC
1FF8
07E0
ENDCHAR
STARTCHAR 1ED3
ENCODING 7891
SWIDTH 495 0
DWIDTH 11 0
BBX 11 19 0 1
BITMAP
0C00
1E00
0700
0000
0000
0400
0E00
3F80
3180
0000
1F00
3F80
7FC0
71E0
F1E0
71E0
7FC0
3F80
1F00
ENDCHAR
STARTCHAR 1ED4
ENCODING 7892
SWIDTH 720 0
DWIDTH 16 0
BBX 15 25 0 0
BITMAP
0070
00F8
0018
0018
0030
01A0
03C0
07E0
0660
0000
07E0
1FF8
3FFC
3C3C
781E
700E
700E
F00E
700E
700E
781E
3C3C
3FFC
1FF8
07E0
ENDCHAR
STARTCHAR 1ED5
ENCODING 7893
SWIDTH 495 0
DWIDTH 11 0
BBX 11 20 0 0
BITMAP
0E00
1F00
0300
0300
0E00
0400
0400
0E00
3F80
3180
0000
1F00
3F80
7FC0
71E0
F1E0
71E0
7FC0
3F80
1F00
ENDCHAR
STARTCHAR 1ED6
ENCODING 7894
SWIDTH 720 0
DWIDTH 16 0
BBX 15 23 0 0
BITMAP
0730
0FF0
0CE0
0000
03C0
07E0
0E70
0020
07E0
1FF8
3FFC
3C3C
781E
700E
700E
F00E
700E
700E
781E
3C3C
3FFC
1FF8
07E0
ENDCHAR
STARTCHAR 1ED7
ENCODING 7895
SWIDTH 495 0
DWIDTH 11 0
BBX 11 19 0 0
BITMAP
1CC0
3F80
3780
0000
0000
0400
1F00
3B80
3180
0000
1F00
3F80
7FC0
71E0
F1E0
71E0
7FC0
3F80
1F00
ENDCHAR
STARTCHAR 1ED8
ENCODING 7896
SWIDTH 720 0
DWIDTH 16 0
BBX 15 26 0 -6
BITMAP
0180
03C0
07E0
0660
0000
07E0
1FF8
3FFC
3C3C
781E
700E
700E
F00E
700E
700E
781E
3C3C
3FFC
1FF8
07E0
0000
0000
0000
0000
0180
0180
ENDCHAR
STARTCHAR 1ED9
ENCODING 7897
SWIDTH 495 0
DWIDTH 11 0
BBX 11 19 0 -5
BITMAP
0400
0E00
3F80
3180
0000
1F00
3F80
7FC0
71E0
F1E0
71E0
7FC0
3F80
1F00
0000
0000
0E00
0E00
0400
ENDCHAR
STARTCHAR 1EDA
ENCODING 7898
SWIDTH 720 0
DWIDTH 16 0
BBX 17 20 0 1
BITMAP
00C000
01E000
038000
020000
000380
07E180
1FFB80
3FFF00
3C3C00
781E00
700E00
700E00
F00E00
700E00
700E00
781E00
3C3C00
3FFC00
1FF800
07E000
ENDCHAR
STARTCHAR 1EDB
ENCODING 7899
SWIDTH 495 0
DWIDTH 11 0
BBX 12 15 0 0
BITMAP
0200
0700
0F00
1C00
0830
0030
1F30
3FF0
7FC0
71C0
F1E0
71E0
7FC0
3F80
1F00
ENDCHAR
STARTCHAR 1EDC
ENCODING 7900
SWIDTH 720 0
DWIDTH 16 0
BBX 17 20 0 1
BITMAP
030000
038000
01E000
004000
000380
07E180
1FFB80
3FFF00
3C3C00
781E00
700E00
700E00
F00E00
700E00
700E00
781E00
3C3C00
3FFC00
1FF800
07E000
ENDCHAR
STARTCHAR 1EDD
ENCODING 7901
SWIDTH 495 0
DWIDTH 11 0
BBX 12 15 0 0
BITMAP
0800
0C00
0E00
0700
0130
0030
1F30
3FF0
7FC0
71C0
F1E0
71E0
7FC0
3F80
1F00
ENDCHAR
STARTCHAR 1EDE
ENCODING 7902
SWIDTH 720 0
DWIDTH 16 0
BBX 17 21 0 0
BITMAP
038000
07C000
04C000
00C000
01C000
010380
07E180
1FFB80
3FFF00
3C3C00
781E00
700E00
700E00
F00E00
700E00
700E00
781E00
3C3C00
3FFC00
1FF800
07E000
ENDCHAR
STARTCHAR 1EDF
ENCODING 7903
SWIDTH 495 0
DWIDTH 11 0
BBX 12 15 0 0
BITMAP
0E00
1F00
0300
0300
0E30
0430
1F30
3FF0
7FC0
71C0
F1E0
71E0
7FC0
3F80
1F00
ENDCHAR
STARTCHAR 1EE0
ENCODING 7904
SWIDTH 720 0
DWIDTH 16 0
BBX 17 20 0 0
BITMAP
073000
07F000
0FE000
000000
000380
07E180
1FFB80
3FFF00
3C3C00
781E00
700E00
700E00
F00E00
700E00
700E00
781E00
3C3C00
3FFC00
1FF800
07E000
ENDCHAR
STARTCHAR 1EE1
ENCODING 7905
SWIDTH 495 0
DWIDTH 11 0
BBX 12 14 0 0
BITMAP
1CC0
3F80
3F80
0030
0030
1F30
3FF0
7FC0
71C0
F1E0
71E0
7FC0
3F80
1F00
ENDCHAR
STARTCHAR 1EE2
ENCODING 7906
SWIDTH 720 0
DWIDTH 16 0
BBX 17 22 0 -6
BITMAP
000380
07E180
1FFB80
3FFF00
3C3C00
781E00
700E00
700E00
F00E00
700E00
700E00
781E00
3C3C00
3FFC00
1FF800
07E000
000000
000000
000000
018000
018000
018000
ENDCHAR
STARTCHAR 1EE3
ENCODING 7907
SWIDTH 495 0
DWIDTH 11 0
BBX 12 16 0 -5
BITMAP
0030
0030
1F30
3FF0
7FC0
71C0
F1E0
71E0
7FC0
3F80
1F00
0000
0000
0E00
0E00
0400
ENDCHAR
STARTCHAR 1EE4
ENCODING 7908
SWIDTH 630 0
DWIDTH 14 0
BBX 12 19 1 -4
BITMAP
E0F0
E0F0
E0F0
E0F0
E0F0
E0F0
E0F0
E0F0
E0F0
E0F0
E0F0
F1E0
7FE0
3FC0
1F00
0000
0600
0600
0400
ENDCHAR
STARTCHAR 1EE5
ENCODING 7909
SWIDTH 540 0
DWIDTH 12 0
BBX 10 12 1 -3
BITMAP
E1C0
E1C0
E1C0
E1C0
E1C0
E3C0
FFC0
7F80
3E00
0C00
0C00
0C00
ENDCHAR
STARTCHAR 1EE6
ENCODING 7910
SWIDTH 630 0
DWIDTH 14 0
BBX 12 20 1 0
BITMAP
1F00
0300
0300
0600
0000
E0F0
E0F0
E0F0
E0F0
E0F0
E0F0
E0F0
E0F0
E0F0
E0F0
E0F0
F1E0
7FE0
3FC0
1F00
ENDCHAR
STARTCHAR 1EE7
ENCODING 7911
SWIDTH 540 0
DWIDTH 12 0
BBX 10 15 1 0
BITMAP
3C00
3E00
0600
0600
0C00
0000
E1C0
E1C0
E1C0
E1C0
E1C0
E3C0
FFC0
7F80
3E00
ENDCHAR
STARTCHAR 1EE8
ENCODING 7912
SWIDTH 765 0
DWIDTH 17 0
BBX 16 20 1 1
BITMAP
0300
0F00
0C00
0803
0003
E0FF
E0FE
E0F0
E0F0
E0F0
E0F0
E0F0
E0F0
E0F0
E0F0
E0F0
F1E0
7FE0
3FC0
1F00
ENDCHAR
STARTCHAR 1EE9
ENCODING 7913
SWIDTH 675 0
DWIDTH 15 0
BBX 14 15 1 0
BITMAP
0400
0E00
1E00
180C
100C
000C
E1FC
E1F8
E1C0
E1C0
E1C0
E3C0
FFC0
7F80
3E00
ENDCHAR
STARTCHAR 1EEA
ENCODING 7914
SWIDTH 765 0
DWIDTH 17 0
BBX 16 20 1 1
BITMAP
0C00
0F00
0300
0103
0003
E0FF
E0FE
E0F0
E0F0
E0F0
E0F0
E0F0
E0F0
E0F0
E0F0
E0F0
F1E0
7FE0
3FC0
1F00
ENDCHAR
STARTCHAR 1EEB
ENCODING 7915
SWIDTH 675 0
DWIDTH 15 0
BBX 14 15 1 0
BITMAP
0800
1C00
1E00
060C
020C
000C
E1FC
E1F8
E1C0
E1C0
E1C0
E3C0
FFC0
7F80
3E00
ENDCHAR
STARTCHAR 1EEC
ENCODING 7916
SWIDTH 765 0
DWIDTH 17 0
BBX 16 21 1 0
BITMAP
1E00
1F00
0300
0303
0603
0003
E0FF
E0FE
E0F0
E0F0
E0F0
E0F0
E0F0
E0F0
E0F0
E0F0
E0F0
F1E0
7FE0
3FC0
1F00
ENDCHAR
STARTCHAR 1EED
ENCODING 7917
SWIDTH 675 0
DWIDTH 15 0
BBX 14 15 1 0
BITMAP
3C00
3E00
0600
060C
0C0C
000C
E1FC
E1F8
E1C0
E1C0
E1C0
E3C0
FFC0
7F80
3E00
ENDCHAR
STARTCHAR 1EEE
ENCODING 7918
SWIDTH 765 0
DWIDTH 17 0
BBX 16 20 1 0
BITMAP
1CC0
3FC0
3383
0003
0003
E0FF
E0FE
E0F0
E0F0
E0F0
E0F0
E0F0
E0F0
E0F0
E0F0
E0F0
F1E0
7FE0
3FC0
1F00
ENDCHAR
STARTCHAR 1EEF
ENCODING 7919
SWIDTH 675 0
DWIDTH 15 0
BBX 14 14 1 0
BITMAP
3980
7F80
670C
000C
000C
E1FC
E1F8
E1C0
E1C0
E1C0
E3C0
FFC0
7F80
3E00
ENDCHAR
STARTCHAR 1EF0
ENCODING 7920
SWIDTH 765 0
DWIDTH 17 0
BBX 16 20 1 -3
BITMAP
0003
0003
E0FF
E0FE
E0F0
E0F0
E0F0
E0F0
E0F0
E0F0
E0F0
E0F0
E0F0
F1E0
7FE0
3FC0
1F00
0400
0E00
0600
ENDCHAR
STARTCHAR 1EF1
ENCODING 7921
SWIDTH 675 0
DWIDTH 15 0
BBX 14 14 1 -3
BITMAP
000C
000C
E1FC
E1F8
E1C0
E1C0
E1C0
E3C0
FFC0
7F80
3E00
0C00
0C00
0C00
ENDCHAR
STARTCHAR 1EF2
ENCODING 7922
SWIDTH 585 0
DWIDTH 13 0
BBX 13 20 0 0
BITMAP
0800
1C00
0E00
0700
0000
F078
F0F0
78F0
79E0
3DE0
1FC0
1FC0
0F80
0F80
0700
0700
0700
0700
0700
0700
ENDCHAR
STARTCHAR 1EF3
ENCODING 7923
SWIDTH 495 0
DWIDTH 11 0
BBX 11 20 0 -5
BITMAP
0800
0C00
0E00
0700
0000
0000
E0E0
71E0
71C0
79C0
3B80
3B80
1F00
1F00
1E00
0E00
1E00
1C00
3C00
3800
ENDCHAR
STARTCHAR 1EF4
ENCODING 7924
SWIDTH 585 0
DWIDTH 13 0
BBX 13 19 0 -4
BITMAP
F078
F0F0
78F0
79E0
3DE0
1FC0
1FC0
0F80
0F80
0700
0700
0700
0700
0700
0700
0000
0600
0700
0200
ENDCHAR
STARTCHAR 1EF5
ENCODING 7925
SWIDTH 495 0
DWIDTH 11 0
BBX 11 14 0 -5
BITMAP
E0E0
71E0
71C0
79C0
3B80
3B80
1F00
1F00
1E00
0E00
1E00
1E00
3C00
3800
ENDCHAR
STARTCHAR 1EF6
ENCODING 7926
SWIDTH 585 0
DWIDTH 13 0
BBX 13 20 0 0
BITMAP
0F00
0180
0380
0700
0000
F078
F0F0
78F0
79E0
3DE0
1FC0
1FC0
0F80
0F80
0700
0700
0700
0700
0700
0700
ENDCHAR
STARTCHAR 1EF7
ENCODING 7927
SWIDTH 495 0
DWIDTH 11 0
BBX 11 20 0 -5
BITMAP
1E00
1F00
0300
0300
0600
0000
E0E0
71E0
71C0
79C0
3B80
3B80
1F00
1F00
1E00
0E00
1E00
1C00
3C00
3800
ENDCHAR
STARTCHAR 1EF8
ENCODING 7928
SWIDTH 585 0
DWIDTH 13 0
BBX 13 19 0 0
BITMAP
1EC0
1FC0
3380
0000
F078
F0F0
78F0
79E0
3DE0
1FC0
1FC0
0F80
0F80
0700
0700
0700
0700
0700
0700
ENDCHAR
STARTCHAR 1EF9
ENCODING 7929
SWIDTH 495 0
DWIDTH 11 0
BBX 11 19 0 -5
BITMAP
1CC0
3F80
3780
0000
0000
E0E0
71E0
71C0
79C0
3B80
3B80
1F00
1F00
1E00
0E00
1E00
1C00
3C00
3800
ENDCHAR
STARTCHAR 2013
ENCODING 8211
SWIDTH 450 0
DWIDTH 10 0
BBX 10 3 0 4
BITMAP
FFC0
FFC0
FFC0
ENDCHAR
STARTCHAR 2014
ENCODING 8212
SWIDTH 855 0
DWIDTH 19 0
BBX 19 3 0 4
BITMAP
FFFFE0
FFFFE0
FFFFE0
ENDCHAR
STARTCHAR 2018
ENCODING 8216
SWIDTH 225 0
DWIDTH 5 0
BBX 4 7 1 8
BITMAP
20
40
C0
E0
F0
F0
60
ENDCHAR
STARTCHAR 2019
ENCODING 8217
SWIDTH 225 0
DWIDTH 5 0
BBX 4 7 0 8
BITMAP
60
F0
F0
70
30
20
40
ENDCHAR
STARTCHAR 201A
ENCODING 8218
SWIDTH 225 0
DWIDTH 5 0
BBX 4 7 1 -3
BITMAP
60
F0
F0
F0
20
60
C0
ENDCHAR
STARTCHAR 201C
ENCODING 8220
SWIDTH 495 0
DWIDTH 11 0
BBX 9 7 1 8
BITMAP
3180
6300
4200
F780
F780
F380
7380
ENDCHAR
STARTCHAR 201D
ENCODING 8221
SWIDTH 495 0
DWIDTH 11 0
BBX 9 7 1 8
BITMAP
6300
F780
F780
F780
2100
6300
4200
ENDCHAR
STARTCHAR 201E
ENCODING 8222
SWIDTH 495 0
DWIDTH 11 0
BBX 9 7 1 -3
BITMAP
6700
F780
F780
F780
2100
6300
C600
ENDCHAR
STARTCHAR 2020
ENCODING 8224
SWIDTH 450 0
DWIDTH 10 0
BBX 7 19 1 -3
BITMAP
38
38
38
38
FE
FE
FE
38
38
38
38
38
38
38
38
38
38
38
38
ENDCHAR
STARTCHAR 2021
ENCODING 8225
SWIDTH 450 0
DWIDTH 10 0
BBX 7 19 1 -3
BITMAP
38
38
38
38
FE
FE
FE
38
38
FE
FE
FE
38
38
38
38
38
38
38
ENDCHAR
STARTCHAR 2022
ENCODING 8226
SWIDTH 540 0
DWIDTH 12 0
BBX 6 7 3 3
BITMAP
78
FC
FC
FC
FC
FC
78
ENDCHAR
STARTCHAR 2026
ENCODING 8230
SWIDTH 810 0
DWIDTH 18 0
BBX 16 4 1 0
BITMAP
6187
F3CF
F3CF
6187
ENDCHAR
STARTCHAR 2030
ENCODING 8240
SWIDTH 1125 0
DWIDTH 25 0
BBX 24 15 0 0
BITMAP
1E0000
3F0040
6301C0
638780
730E00
3F3800
1E7000
01C000
07B83C
0E7E7E
38E667
70C7E3
C0C6E3
007E7E
003C3C
ENDCHAR
STARTCHAR 2039
ENCODING 8249
SWIDTH 315 0
DWIDTH 7 0
BBX 5 8 1 0
BITMAP
10
30
70
E0
C0
E0
70
38
ENDCHAR
STARTCHAR 203A
ENCODING 8250
SWIDTH 315 0
DWIDTH 7 0
BBX 5 9 1 0
BITMAP
40
E0
60
30
38
30
60
E0
40
ENDCHAR
STARTCHAR 2044
ENCODING 8260
SWIDTH 225 0
DWIDTH 5 0
BBX 10 15 -3 0
BITMAP
00C0
00C0
0180
0180
0300
0300
0600
0C00
0C00
1800
1800
3000
3000
6000
C000
ENDCHAR
STARTCHAR 2074
ENCODING 8308
SWIDTH 225 0
DWIDTH 5 0
BBX 4 6 0 9
BITMAP
30
70
70
F0
F0
30
ENDCHAR
STARTCHAR 20A1
ENCODING 8353
SWIDTH 585 0
DWIDTH 13 0
BBX 13 18 0 -2
BITMAP
0068
07F8
1FF8
3FF0
39B0
7BE0
7360
7360
F6C0
76C0
7F80
7D80
7D90
3FF0
1FF0
37E0
3600
3600
ENDCHAR
STARTCHAR 20A3
ENCODING 8355
SWIDTH 495 0
DWIDTH 11 0
BBX 9 15 0 0
BITMAP
7F80
7F80
7F80
7000
7000
7000
7F80
7F80
7F80
7000
7000
FE00
FE00
7000
7000
ENDCHAR
STARTCHAR 20A4
ENCODING 8356
SWIDTH 630 0
DWIDTH 14 0
BBX 12 15 1 0
BITMAP
1F00
3FC0
7FC0
70C0
7000
7000
7000
FF00
3800
FF00
1C00
1800
7EF0
FFE0
C3C0
ENDCHAR
STARTCHAR 20A6
ENCODING 8358
SWIDTH 720 0
DWIDTH 16 0
BBX 16 15 0 0
BITMAP
7C1C
7C1C
7E1C
7E1C
771C
771C
FFFF
FFFF
71DC
71DC
70FC
70FC
707C
707C
703C
ENDCHAR
STARTCHAR 20A7
ENCODING 8359
SWIDTH 540 0
DWIDTH 12 0
BBX 12 15 0 0
BITMAP
7F80
7FC0
7FE0
71E0
FFF0
FFF0
71E0
7FE0
7FC0
7E00
7000
7000
7000
7000
7000
ENDCHAR
STARTCHAR 20A9
ENCODING 8361
SWIDTH 900 0
DWIDTH 20 0
BBX 19 15 0 0
BITMAP
F0E1E0
70E1E0
70F1E0
79F1C0
79F1C0
39FBC0
FFFFE0
FFFFE0
3BBB80
3F9F80
1F1F80
1F1F80
1F1F00
1F0F00
1F0F00
ENDCHAR
STARTCHAR 20AB
ENCODING 8363
SWIDTH 540 0
DWIDTH 12 0
BBX 12 19 0 -3
BITMAP
00E0
00E0
07F0
07F0
00E0
00E0
00E0
1EE0
3FE0
7FE0
70E0
F0E0
70E0
7FE0
3FE0
1EE0
0000
3F80
3F80
ENDCHAR
STARTCHAR 20AC
ENCODING 8364
SWIDTH 675 0
DWIDTH 15 0
BBX 14 15 0 0
BITMAP
03F0
0FFC
1FF8
3F18
3C00
FFE0
FFE0
7800
FFE0
FFE0
3C00
3F18
1FF8
0FFC
03F0
ENDCHAR
STARTCHAR 20AD
ENCODING 8365
SWIDTH 585 0
DWIDTH 13 0
BBX 12 15 0 0
BITMAP
70E0
71E0
73C0
7380
7780
7F00
FFF0
FFF0
7F00
7780
7380
73C0
71E0
70E0
70F0
ENDCHAR
STARTCHAR 20B1
ENCODING 8369
SWIDTH 540 0
DWIDTH 12 0
BBX 12 15 0 0
BITMAP
7F80
7FC0
7FE0
71E0
FFF0
70E0
FFF0
71E0
71E0
7FC0
7F80
7E00
7000
7000
7000
ENDCHAR
STARTCHAR 20B2
ENCODING 8370
SWIDTH 720 0
DWIDTH 16 0
BBX 15 19 0 -3
BITMAP
0380
07E0
1FF8
3FFC
7FBC
7B90
7380
F380
F3FE
73FE
738E
7B9E
3FBC
3FFC
1FF8
07E0
0380
0380
0380
ENDCHAR
STARTCHAR 20B5
ENCODING 8373
SWIDTH 585 0
DWIDTH 13 0
BBX 12 19 0 -3
BITMAP
0380
07E0
1FF0
3FF0
3F90
7B80
7380
7380
F380
7380
7380
7B80
7F90
3FF0
1FF0
07F0
0380
0380
0380
ENDCHAR
STARTCHAR 20B9
ENCODING 8377
SWIDTH 585 0
DWIDTH 13 0
BBX 10 15 2 0
BITMAP
FFC0
FFC0
0F00
0700
FFC0
FFC0
0700
0F00
FE00
F000
F000
7800
3C00
1E00
0F00
ENDCHAR
STARTCHAR 20BA
ENCODING 8378
SWIDTH 495 0
DWIDTH 11 0
BBX 11 15 0 0
BITMAP
7000
7000
7100
7700
7F00
FC00
F100
7F00
FC00
F0E0
70E0
71E0
7FC0
7F80
7F00
ENDCHAR
STARTCHAR 20BC
ENCODING 8380
SWIDTH 585 0
DWIDTH 13 0
BBX 11 16 1 0
BITMAP
0C00
0C00
3F80
7FC0
FFE0
EDE0
ECE0
ECE0
ECE0
ECE0
ECE0
ECE0
ECE0
ECE0
ECE0
ECE0
ENDCHAR
STARTCHAR 20BD
ENCODING 8381
SWIDTH 540 0
DWIDTH 12 0
BBX 12 15 -1 0
BITMAP
3FC0
3FE0
3FF0
38F0
3870
3870
38F0
FFF0
FFE0
3F00
3800
FE00
FE00
3800
3800
ENDCHAR
STARTCHAR 2116
ENCODING 8470
SWIDTH 1260 0
DWIDTH 28 0
BBX 26 15 1 0
BITMAP
F8383E00
F8387F00
FC38FF80
FC38E380
EE39E3C0
EE38E3C0
E738E380
E738FF80
E3B87F00
E3B81C00
E1F80000
E1F80000
E0F8FFC0
E0F8FFC0
E078FFC0
ENDCHAR
STARTCHAR 2122
ENCODING 8482
SWIDTH 405 0
DWIDTH 9 0
BBX 9 5 0 10
BITMAP
F900
4D00
4E80
4A80
4A80
ENDCHAR
STARTCHAR 2212
ENCODING 8722
SWIDTH 540 0
DWIDTH 12 0
BBX 10 3 1 6
BITMAP
FFC0
FFC0
FFC0
ENDCHAR
STARTCHAR 2215
ENCODING 8725
SWIDTH 540 0
DWIDTH 12 0
BBX 9 17 1 -1
BITMAP
0380
0380
0300
0700
0600
0E00
0E00
0C00
1C00
1800
3800
3000
7000
7000
6000
E000
C000
ENDCHAR
STARTCHAR 2219
ENCODING 8729
SWIDTH 540 0
DWIDTH 12 0
BBX 6 7 3 3
BITMAP
78
FC
FC
FC
FC
FC
78
ENDCHAR
STARTCHAR 2248
ENCODING 8776
SWIDTH 585 0
DWIDTH 13 0
BBX 11 8 1 1
BITMAP
7CC0
FFC0
4780
0000
3800
7FE0
EFC0
0780
ENDCHAR
STARTCHAR 2260
ENCODING 8800
SWIDTH 540 0
DWIDTH 12 0
BBX 9 12 1 1
BITMAP
0300
0300
FF80
FF80
FF80
1800
FF80
FF80
FF80
6000
C000
C000
ENDCHAR
STARTCHAR 2264
ENCODING 8804
SWIDTH 540 0
DWIDTH 12 0
BBX 11 15 0 0
BITMAP
0060
01E0
07E0
3F80
7C00
7800
7E00
1FC0
07E0
00E0
0020
0000
FFE0
FFE0
FFE0
ENDCHAR
STARTCHAR 2265
ENCODING 8805
SWIDTH 540 0
DWIDTH 12 0
BBX 10 15 1 0
BITMAP
8000
F000
FC00
3F00
0FC0
03C0
0FC0
7F00
F800
E000
8000
0000
FFC0
FFC0
FFC0
ENDCHAR
STARTCHAR FB01
ENCODING 64257
SWIDTH 630 0
DWIDTH 14 0
BBX 12 16 0 0
BITMAP
0F00
1F70
3E70
3870
3830
3800
3800
FE70
FE70
FE70
3870
3870
3870
3870
3870
3870
ENDCHAR
STARTCHAR FB02
ENCODING 64258
SWIDTH 585 0
DWIDTH 13 0
BBX 12 16 0 0
BITMAP
0F70
1F70
3E70
3870
3870
3870
3870
FE70
FE70
FE70
3870
3870
3870
3870
3870
3870
ENDCHAR
ENDFONT
